<svg xmlns="http://www.w3.org/2000/svg" width="664.8878173828125" height="692.363037109375" viewBox="-216.8216094970703 -260.0299072265625 664.8878173828125 692.363037109375"><title>Neo4j Graph Visualization</title><desc>Created using Neo4j (http://www.neo4j.com/)</desc><g class="layer relationships"><g class="relationship" transform="translate(299.534303917647 21.765985683144017) rotate(393.75337947321805)"><path class="outline" fill="#A5ABB6" stroke="none" d="M 24.018736134675446,-6.953439040707552 L 24.277555179777966,-5.987513214418485 A 93.39334248905284 93.39334248905284 0 0 1 35.967606871073556,-8.331957728194453 L 35.833957901050695,-9.32298646279898 A 94.39334248905284 94.39334248905284 0 0 0 24.018736134675446,-6.953439040707552 Z M 57.90912574203539,-9.694623150397291 L 57.80891110198909,-8.699657308812576 A 93.39334248905284 93.39334248905284 0 0 1 69.5712536460663,-6.750035166158169 L 68.89277735916775,-3.8277638016000517 L 76.502966211185,-5.653969057487908 L 70.47588869526436,-10.646396985568991 L 69.79741240836582,-7.724125621010874 A 94.39334248905284 94.39334248905284 0 0 0 57.90912574203539,-9.694623150397291"/><text text-anchor="middle" pointer-events="none" font-size="8px" fill="#000000" x="46.86905517220069" y="-6.6565114335973306" font-family="sans-serif">road</text></g><g class="relationship" transform="translate(383.3890558071209 77.80309406922312) rotate(431.3584708424792)"><path class="outline" fill="#A5ABB6" stroke="none" d="M 21.40063509461097,-12.933012701892217 L 21.90063509461097,-12.06698729810778 A 64.23825535770645 64.23825535770645 0 0 1 29.680281180581932,-15.883685518328122 L 29.30138730406942,-16.80912564623555 A 65.23825535770645 65.23825535770645 0 0 0 21.40063509461097,-12.933012701892217 Z M 75.10625858207143,-18.1714794871515 L 74.7830357170057,-17.225156614396802 A 64.23825535770645 64.23825535770645 0 0 1 82.77576595444539,-13.877569142990854 L 81.43282771518957,-11.194936688563955 L 89.25906472131746,-11.19115199379844 L 84.56635027345314,-17.454412415560057 L 83.22341203419732,-14.771779961133156 A 65.23825535770645 65.23825535770645 0 0 0 75.10625858207143,-18.1714794871515"/><text text-anchor="middle" pointer-events="none" font-size="8px" fill="#000000" x="52.09513283539058" y="-18.144666243695653" font-family="sans-serif">twowheeler</text></g><g class="relationship" transform="translate(419.06615251145985 183.56180334311023) rotate(502.10107704675164)"><path class="outline" fill="#A5ABB6" stroke="none" d="M 21.40063509461097,12.933012701892217 L 21.90063509461097,12.06698729810778 A 71.05838765137847 71.05838765137847 0 0 0 32.876265415411694,17.210077443473082 L 32.53072473659202,18.148481215460833 A 72.05838765137847 72.05838765137847 0 0 1 21.40063509461097,12.933012701892217 Z M 78.48435163580474,19.44246540957313 L 78.19216465519442,18.486104197288867 A 71.05838765137847 71.05838765137847 0 0 0 89.43981731933407,13.968787877934462 L 88.08839395650409,11.29041992442297 L 95.91457977133254,11.261861356916443 L 91.24171513644069,17.539945149283117 L 89.89029177361071,14.861577195771625 A 72.05838765137847 72.05838765137847 0 0 1 78.48435163580474,19.44246540957313"/><text text-anchor="middle" pointer-events="none" font-size="8px" fill="#000000" x="55.415651994813345" y="25.058653632114712" transform="rotate(180 55.415651994813345 22.058653632114712)" font-family="sans-serif">twowheeler</text></g><g class="relationship" transform="translate(325.76797278950863 256.1896379817232) rotate(482.1120782180577)"><path class="outline" fill="#A5ABB6" stroke="none" d="M 25 0.5 L 51.73330384307788 0.5 L 51.73330384307788 -0.5 L 25 -0.5 Z M 71.06924134307788 0.5 L 97.80254518615575 0.5 L 97.80254518615575 3.5 L 104.80254518615575 0 L 97.80254518615575 -3.5 L 97.80254518615575 -0.5 L 71.06924134307788 -0.5 Z"/><text text-anchor="middle" pointer-events="none" font-size="8px" fill="#000000" x="61.40127259307788" y="3" transform="rotate(180 61.40127259307788 0)" font-family="sans-serif">trek</text></g><g class="relationship" transform="translate(419.06615251145985 183.56180334311023) rotate(502.10107704675164)"><path class="outline" fill="#A5ABB6" stroke="none" d="M 25 0.5 L 44.61129698363082 0.5 L 44.61129698363082 -0.5 L 25 -0.5 Z M 66.62301573363082 0.5 L 86.23431271726164 0.5 L 86.23431271726164 3.5 L 93.23431271726164 0 L 86.23431271726164 -3.5 L 86.23431271726164 -0.5 L 66.62301573363082 -0.5 Z"/><text text-anchor="middle" pointer-events="none" font-size="8px" fill="#000000" x="55.61715635863082" y="3" transform="rotate(180 55.61715635863082 0)" font-family="sans-serif">road</text></g><g class="relationship" transform="translate(419.06615251145985 183.56180334311023) rotate(502.10107704675164)"><path class="outline" fill="#A5ABB6" stroke="none" d="M 21.40063509461097,-12.933012701892217 L 21.90063509461097,-12.06698729810778 A 71.05838765137847 71.05838765137847 0 0 1 45.880509439241905,-20.64215261953808 L 45.717976628369236,-21.62885575898268 A 72.05838765137847 72.05838765137847 0 0 0 21.40063509461097,-12.933012701892217 Z M 65.12214670496827,-22.175247656058744 L 65.01539552671706,-21.180961889318624 A 71.05838765137847 71.05838765137847 0 0 1 89.43981731933407,-13.968787877934462 L 88.08839395650409,-11.29041992442297 L 95.91457977133254,-11.261861356916443 L 91.24171513644069,-17.539945149283117 L 89.89029177361071,-14.861577195771625 A 72.05838765137847 72.05838765137847 0 0 0 65.12214670496827,-22.175247656058744"/><text text-anchor="middle" pointer-events="none" font-size="8px" fill="#000000" x="55.41565199481333" y="-19.058653632114712" transform="rotate(180 55.41565199481333 -22.058653632114712)" font-family="sans-serif">trek</text></g><g class="relationship" transform="translate(383.3890558071209 77.80309406922312) rotate(431.3584708424792)"><path class="outline" fill="#A5ABB6" stroke="none" d="M 25 0.5 L 42.639198837437476 0.5 L 42.639198837437476 -0.5 L 25 -0.5 Z M 61.975136337437476 0.5 L 79.61433517487495 0.5 L 79.61433517487495 3.5 L 86.61433517487495 0 L 79.61433517487495 -3.5 L 79.61433517487495 -0.5 L 61.975136337437476 -0.5 Z"/><text text-anchor="middle" pointer-events="none" font-size="8px" fill="#000000" x="52.307167587437476" y="3" font-family="sans-serif">trek</text></g><g class="relationship" transform="translate(383.3890558071209 77.80309406922312) rotate(431.3584708424792)"><path class="outline" fill="#A5ABB6" stroke="none" d="M 21.40063509461097,12.933012701892217 L 21.90063509461097,12.06698729810778 A 64.23825535770645 64.23825535770645 0 0 0 41.27400594195449,19.39611848877223 L 41.07559213447271,20.37623682907639 A 65.23825535770645 65.23825535770645 0 0 1 21.40063509461097,12.933012701892217 Z M 63.14086427253344,21.032514369202985 L 63.00105211095651,20.042336324871982 A 64.23825535770645 64.23825535770645 0 0 0 82.77576595444539,13.877569142990854 L 81.43282771518957,11.194936688563955 L 89.25906472131746,11.19115199379844 L 84.56635027345314,17.454412415560057 L 83.22341203419732,14.771779961133156 A 65.23825535770645 65.23825535770645 0 0 1 63.14086427253344,21.032514369202985"/><text text-anchor="middle" pointer-events="none" font-size="8px" fill="#000000" x="52.095132835390594" y="24.144666243695653" font-family="sans-serif">road</text></g><g class="relationship" transform="translate(299.534303917647 21.765985683144017) rotate(393.75337947321805)"><path class="outline" fill="#A5ABB6" stroke="none" d="M 24.018736134675446,6.953439040707552 L 24.277555179777966,5.987513214418485 A 93.39334248905284 93.39334248905284 0 0 0 37.2876568035488,8.500411370610351 L 37.168142137934524,9.493243805970465 A 94.39334248905284 94.39334248905284 0 0 1 24.018736134675446,6.953439040707552 Z M 56.56996659793246,9.819874607947469 L 56.483938966299995,8.823581856495508 A 93.39334248905284 93.39334248905284 0 0 0 69.5712536460663,6.750035166158169 L 68.89277735916775,3.8277638016000517 L 76.502966211185,5.653969057487908 L 70.47588869526436,10.646396985568991 L 69.79741240836582,7.724125621010874 A 94.39334248905284 94.39334248905284 0 0 1 56.56996659793246,9.819874607947469"/><text text-anchor="middle" pointer-events="none" font-size="8px" fill="#000000" x="46.86905517220072" y="12.65651143359733" font-family="sans-serif">trek</text></g><g class="relationship" transform="translate(34.629978547167816 -148.47754008690094) rotate(249.50499562550067)"><path class="outline" fill="#A5ABB6" stroke="none" d="M 24.018736134675446,-6.953439040707552 L 24.277555179777966,-5.987513214418485 A 67.70821434799144 67.70821434799144 0 0 1 30.958955780527567,-7.4207965970425676 L 30.79881605617053,-8.407890953567232 A 68.70821434799144 68.70821434799144 0 0 0 24.018736134675446,-6.953439040707552 Z M 50.20780349622019,-8.778457461904722 L 50.085458984533076,-7.785969769054049 A 67.70821434799144 67.70821434799144 0 0 1 56.816700337723375,-6.608767540163736 L 56.15142050782131,-3.683463667413851 L 63.753289345790115,-5.5439985825172275 L 57.70374011092613,-10.509172703830249 L 57.03846028102406,-7.583868831080364 A 68.70821434799144 68.70821434799144 0 0 0 50.20780349622019,-8.778457461904722"/><text text-anchor="middle" pointer-events="none" font-size="8px" fill="#000000" x="40.49970105894449" y="-5.782186291184004" transform="rotate(180 40.49970105894449 -8.782186291184004)" font-family="sans-serif">trek</text></g><g class="relationship" transform="translate(3.7731119339242674 -231.0299204402296) rotate(396.78621908619243)"><path class="outline" fill="#A5ABB6" stroke="none" d="M 21.40063509461097,-12.933012701892217 L 21.90063509461097,-12.06698729810778 A 79.53088617092797 79.53088617092797 0 0 1 50.001190145389984,-21.862003406587505 L 49.85451897653597,-22.851188711890302 A 80.53088617092797 80.53088617092797 0 0 0 21.40063509461097,-12.933012701892217 Z M 69.2572077505942,-23.363523804478618 L 69.16294417134579,-22.367976529043005 A 79.53088617092797 79.53088617092797 0 0 1 97.74126222018229,-14.069586792064829 L 96.38046319818066,-11.395970136349316 L 104.20650092051876,-11.339991850013602 L 99.55566091618446,-17.634408999685512 L 98.19486189418284,-14.960792343969999 A 80.53088617092797 80.53088617092797 0 0 0 69.2572077505942,-23.363523804478618"/><text text-anchor="middle" pointer-events="none" font-size="8px" fill="#000000" x="59.553569701561024" y="-20.194219740037695" font-family="sans-serif">trek</text></g><g class="relationship" transform="translate(105.07315344341846 -155.28580108193665) rotate(484.94301086315414)"><path class="outline" fill="#A5ABB6" stroke="none" d="M 21.40063509461097,12.933012701892217 L 21.90063509461097,12.06698729810778 A 86.40155493108438 86.40155493108438 0 0 0 52.038114047690016,22.64935292938638 L 51.88692118405599,23.63785721262755 A 87.40155493108438 87.40155493108438 0 0 1 21.40063509461097,12.933012701892217 Z M 73.95918323028495,24.192593821613073 L 73.85783754281846,23.197742550501687 A 86.40155493108438 86.40155493108438 0 0 0 104.48885963188093,14.14265636754822 L 103.1212645543452,11.472509610551507 L 110.94713457779588,11.396625646130989 L 106.3123197352619,17.702852043543835 L 104.94472465772617,15.032705286547124 A 87.40155493108438 87.40155493108438 0 0 1 73.95918323028495,24.192593821613073"/><text text-anchor="middle" pointer-events="none" font-size="8px" fill="#000000" x="62.91802710744608" y="27.115167825106838" transform="rotate(180 62.91802710744608 24.115167825106838)" font-family="sans-serif">road</text></g><g class="relationship" transform="translate(28.782277724529045 -46.10015762639753) rotate(465.3767792145117)"><path class="outline" fill="#A5ABB6" stroke="none" d="M 25 0.5 L 53.82688587397686 0.5 L 53.82688587397686 -0.5 L 25 -0.5 Z M 73.16282337397686 0.5 L 101.98970924795373 0.5 L 101.98970924795373 3.5 L 108.98970924795373 0 L 101.98970924795373 -3.5 L 101.98970924795373 -0.5 L 73.16282337397686 -0.5 Z"/><text text-anchor="middle" pointer-events="none" font-size="8px" fill="#000000" x="63.49485462397686" y="3" transform="rotate(180 63.49485462397686 0)" font-family="sans-serif">trek</text></g><g class="relationship" transform="translate(105.07315344341846 -155.28580108193665) rotate(484.94301086315414)"><path class="outline" fill="#A5ABB6" stroke="none" d="M 25 0.5 L 39.86675690138422 0.5 L 39.86675690138422 -0.5 L 25 -0.5 Z M 86.33160065138422 0.5 L 101.19835755276844 0.5 L 101.19835755276844 3.5 L 108.19835755276844 0 L 101.19835755276844 -3.5 L 101.19835755276844 -0.5 L 86.33160065138422 -0.5 Z"/><text text-anchor="middle" pointer-events="none" font-size="8px" fill="#000000" x="63.09917877638422" y="3" transform="rotate(180 63.09917877638422 0)" font-family="sans-serif">twowheeler</text></g><g class="relationship" transform="translate(105.07315344341846 -155.28580108193665) rotate(484.94301086315414)"><path class="outline" fill="#A5ABB6" stroke="none" d="M 21.40063509461097,-12.933012701892217 L 21.90063509461097,-12.06698729810778 A 86.40155493108438 86.40155493108438 0 0 1 53.35451157749943,-22.840339091694545 L 53.218554522189216,-23.831053823144217 A 87.40155493108438 87.40155493108438 0 0 0 21.40063509461097,-12.933012701892217 Z M 72.61952610263164,-24.318653560906398 L 72.53350802722777,-23.32235998434183 A 86.40155493108438 86.40155493108438 0 0 1 104.48885963188093,-14.14265636754822 L 103.1212645543452,-11.472509610551507 L 110.94713457779588,-11.396625646130989 L 106.3123197352619,-17.702852043543835 L 104.94472465772617,-15.032705286547124 A 87.40155493108438 87.40155493108438 0 0 0 72.61952610263164,-24.318653560906398"/><text text-anchor="middle" pointer-events="none" font-size="8px" fill="#000000" x="62.91802710744607" y="-21.115167825106838" transform="rotate(180 62.91802710744607 -24.115167825106838)" font-family="sans-serif">trek</text></g><g class="relationship" transform="translate(3.7731119339242674 -231.0299204402296) rotate(396.78621908619243)"><path class="outline" fill="#A5ABB6" stroke="none" d="M 25 0.5 L 48.737460484074 0.5 L 48.737460484074 -0.5 L 25 -0.5 Z M 70.749179234074 0.5 L 94.486639718148 0.5 L 94.486639718148 3.5 L 101.486639718148 0 L 94.486639718148 -3.5 L 94.486639718148 -0.5 L 70.749179234074 -0.5 Z"/><text text-anchor="middle" pointer-events="none" font-size="8px" fill="#000000" x="59.743319859074" y="3" font-family="sans-serif">road</text></g><g class="relationship" transform="translate(3.7731119339242674 -231.0299204402296) rotate(396.78621908619243)"><path class="outline" fill="#A5ABB6" stroke="none" d="M 21.40063509461097,12.933012701892217 L 21.90063509461097,12.06698729810778 A 79.53088617092797 79.53088617092797 0 0 0 36.89815745925729,18.767088377417522 L 36.58673227700061,19.717359052465625 A 80.53088617092797 80.53088617092797 0 0 1 21.40063509461097,12.933012701892217 Z M 82.67189011272534,20.934254498331924 L 82.41104842910019,19.96887290741381 A 79.53088617092797 79.53088617092797 0 0 0 97.74126222018229,14.069586792064829 L 96.38046319818066,11.395970136349316 L 104.20650092051876,11.339991850013602 L 99.55566091618446,17.634408999685512 L 98.19486189418284,14.960792343969999 A 80.53088617092797 80.53088617092797 0 0 1 82.67189011272534,20.934254498331924"/><text text-anchor="middle" pointer-events="none" font-size="8px" fill="#000000" x="59.55356970156104" y="26.194219740037695" font-family="sans-serif">twowheeler</text></g><g class="relationship" transform="translate(34.629978547167816 -148.47754008690094) rotate(249.50499562550067)"><path class="outline" fill="#A5ABB6" stroke="none" d="M 24.018736134675446,6.953439040707552 L 24.277555179777966,5.987513214418485 A 67.70821434799144 67.70821434799144 0 0 0 29.650182145920667,7.195274817067272 L 29.470712807761082,8.179038384526734 A 68.70821434799144 68.70821434799144 0 0 1 24.018736134675446,6.953439040707552 Z M 51.54367440626773,8.600466876532849 L 51.40188722789623,7.610569712151886 A 67.70821434799144 67.70821434799144 0 0 0 56.816700337723375,6.608767540163736 L 56.15142050782131,3.683463667413851 L 63.753289345790115,5.5439985825172275 L 57.70374011092613,10.509172703830249 L 57.03846028102406,7.583868831080364 A 68.70821434799144 68.70821434799144 0 0 1 51.54367440626773,8.600466876532849"/><text text-anchor="middle" pointer-events="none" font-size="8px" fill="#000000" x="40.4997010589445" y="11.782186291184004" transform="rotate(180 40.4997010589445 8.782186291184004)" font-family="sans-serif">road</text></g><g class="relationship" transform="translate(299.534303917647 21.765985683144017) rotate(460.0407586887411)"><path class="outline" fill="#A5ABB6" stroke="none" d="M 21.40063509461097,12.933012701892217 L 21.90063509461097,12.06698729810778 A 73.63888068034619 73.63888068034619 0 0 0 27.095828008684347,14.79641521580335 L 26.66637759968947,15.699505657682863 A 74.63888068034619 74.63888068034619 0 0 1 21.40063509461097,12.933012701892217 Z M 87.00687242242294,17.36496597581528 L 86.62789035932393,16.439561958183404 A 73.63888068034619 73.63888068034619 0 0 0 91.96572911724142,14.000856652738017 L 90.61132285622948,11.323995864401862 L 98.43747200019443,11.28671884176618 L 93.77160413192401,17.570004370519555 L 92.41719787091206,14.8931435821834 A 74.63888068034619 74.63888068034619 0 0 1 87.00687242242294,17.36496597581528"/><text text-anchor="middle" pointer-events="none" font-size="8px" fill="#000000" x="56.67454435011801" y="25.40450258631921" transform="rotate(180 56.67454435011801 22.40450258631921)" font-family="sans-serif">PublicTransport</text></g><g class="relationship" transform="translate(278.48263203358465 140.66130293379413) rotate(427.7408873519378)"><path class="outline" fill="#A5ABB6" stroke="none" d="M 25 0.5 L 49.24737321283475 0.5 L 49.24737321283475 -0.5 L 25 -0.5 Z M 68.58331071283476 0.5 L 92.8306839256695 0.5 L 92.8306839256695 3.5 L 99.8306839256695 0 L 92.8306839256695 -3.5 L 92.8306839256695 -0.5 L 68.58331071283476 -0.5 Z"/><text text-anchor="middle" pointer-events="none" font-size="8px" fill="#000000" x="58.91534196283475" y="3" font-family="sans-serif">trek</text></g><g class="relationship" transform="translate(278.48263203358465 140.66130293379413) rotate(508.30166761090146)"><path class="outline" fill="#A5ABB6" stroke="none" d="M 24.018736134675446,-6.953439040707552 L 24.277555179777966,-5.987513214418485 A 161.4055007941739 161.4055007941739 0 0 1 40.932410096559174,-9.520547083094925 L 40.77677746601398,-10.50836208819939 A 162.4055007941739 162.4055007941739 0 0 0 24.018736134675446,-6.953439040707552 Z M 87.22154212030829,-11.101686276707255 L 87.0911945074062,-10.110217921281475 A 161.4055007941739 161.4055007941739 0 0 1 103.83086740438637,-7.0037936234185425 L 103.12868883335473,-4.087126817905103 L 110.75345304575633,-5.8514880919303 L 104.76710549909522,-10.892682697436461 L 104.06492692806358,-7.976015891923022 A 162.4055007941739 162.4055007941739 0 0 0 87.22154212030829,-11.101686276707255"/><text text-anchor="middle" pointer-events="none" font-size="8px" fill="#000000" x="63.98422551933462" y="-8.974062705725856" transform="rotate(180 63.98422551933462 -11.974062705725856)" font-family="sans-serif">twowheeler</text></g><g class="relationship" transform="translate(163.5708605581109 211.62763927208576) rotate(450.4457146596508)"><path class="outline" fill="#A5ABB6" stroke="none" d="M 24.018736134675446,-6.953439040707552 L 24.277555179777966,-5.987513214418485 A 107.61937337756733 107.61937337756733 0 0 1 40.82966767679041,-9.059468692472862 L 40.72465098137209,-10.053939151402346 A 108.61937337756733 108.61937337756733 0 0 0 24.018736134675446,-6.953439040707552 Z M 60.12171252780224,-10.360269358273015 L 60.04815093701552,-9.362978682310924 A 107.61937337756733 107.61937337756733 0 0 1 76.68901327334899,-6.815226874127531 L 76.00444745947918,-3.8943760312256246 L 83.6184262090984,-5.704715115581651 L 77.60176769184206,-10.709694664663408 L 76.91720187797225,-7.788843821761501 A 108.61937337756733 108.61937337756733 0 0 0 60.12171252780224,-10.360269358273015"/><text text-anchor="middle" pointer-events="none" font-size="8px" fill="#000000" x="50.424224542650514" y="-7.141074122023667" transform="rotate(180 50.424224542650514 -10.141074122023667)" font-family="sans-serif">trek</text></g><g class="relationship" transform="translate(162.73103680276574 319.5832225819793) rotate(386.33648825954907)"><path class="outline" fill="#A5ABB6" stroke="none" d="M 24.018736134675446,6.953439040707552 L 24.277555179777966,5.987513214418485 A 101.55791401326884 101.55791401326884 0 0 0 26.04156301444993,6.443258651866643 L 25.800113446180514,7.413672020479467 A 102.55791401326884 102.55791401326884 0 0 1 24.018736134675446,6.953439040707552 Z M 72.08428573429023,8.164455384263235 L 71.87443739217,7.186721436141667 A 101.55791401326884 101.55791401326884 0 0 0 73.65229871506368,6.7884292555789925 L 72.97023602899617,3.8669928807328136 L 80.58266070404935,5.683855717229182 L 74.56171562982036,10.683677755373896 L 73.87965294375284,7.762241380527718 A 102.55791401326884 102.55791401326884 0 0 1 72.08428573429023,8.164455384263235"/><text text-anchor="middle" pointer-events="none" font-size="8px" fill="#000000" x="48.907396633275546" y="12.934590806150098" font-family="sans-serif">twowheeler</text></g><g class="relationship" transform="translate(162.73103680276574 319.5832225819793) rotate(386.33648825954907)"><path class="outline" fill="#A5ABB6" stroke="none" d="M 24.018736134675446,-6.953439040707552 L 24.277555179777966,-5.987513214418485 A 101.55791401326884 101.55791401326884 0 0 1 39.31793373113008,-8.823572541947144 L 39.207211254350014,-9.817423905650827 A 102.55791401326884 102.55791401326884 0 0 0 24.018736134675446,-6.953439040707552 Z M 58.606278775213404,-10.13209945125466 L 58.52784893052217,-9.135179815846826 A 101.55791401326884 101.55791401326884 0 0 1 73.65229871506368,-6.7884292555789925 L 72.97023602899617,-3.8669928807328136 L 80.58266070404935,-5.683855717229182 L 74.56171562982036,-10.683677755373896 L 73.87965294375284,-7.762241380527718 A 102.55791401326884 102.55791401326884 0 0 0 58.606278775213404,-10.13209945125466"/><text text-anchor="middle" pointer-events="none" font-size="8px" fill="#000000" x="48.90739663327552" y="-6.934590806150098" font-family="sans-serif">trek</text></g><g class="relationship" transform="translate(163.5708605581109 211.62763927208576) rotate(450.4457146596508)"><path class="outline" fill="#A5ABB6" stroke="none" d="M 24.018736134675446,6.953439040707552 L 24.277555179777966,5.987513214418485 A 107.61937337756733 107.61937337756733 0 0 0 27.526624660313807,6.804115878575075 L 27.297995992450677,7.777629582757569 A 108.61937337756733 108.61937337756733 0 0 1 24.018736134675446,6.953439040707552 Z M 73.61355160296219,8.509073038640665 L 73.41577792499778,7.528825328975188 A 107.61937337756733 107.61937337756733 0 0 0 76.68901327334899,6.815226874127531 L 76.00444745947918,3.8943760312256246 L 83.6184262090984,5.704715115581651 L 77.60176769184206,10.709694664663408 L 76.91720187797225,7.788843821761501 A 108.61937337756733 108.61937337756733 0 0 1 73.61355160296219,8.509073038640665"/><text text-anchor="middle" pointer-events="none" font-size="8px" fill="#000000" x="50.424224542650535" y="13.141074122023667" transform="rotate(180 50.424224542650535 10.141074122023667)" font-family="sans-serif">twowheeler</text></g><g class="relationship" transform="translate(278.48263203358465 140.66130293379413) rotate(508.30166761090146)"><path class="outline" fill="#A5ABB6" stroke="none" d="M 24.018736134675446,6.953439040707552 L 24.277555179777966,5.987513214418485 A 161.4055007941739 161.4055007941739 0 0 0 54.36268789958762,11.063406948729863 L 54.290263571962385,12.060780858940092 A 162.4055007941739 162.4055007941739 0 0 1 24.018736134675446,6.953439040707552 Z M 73.6728086849827,12.308389667726175 L 73.62588640785478,11.309491124375 A 161.4055007941739 161.4055007941739 0 0 0 103.83086740438637,7.0037936234185425 L 103.12868883335473,4.087126817905103 L 110.75345304575633,5.8514880919303 L 104.76710549909522,10.892682697436461 L 104.06492692806358,7.976015891923022 A 162.4055007941739 162.4055007941739 0 0 1 73.6728086849827,12.308389667726175"/><text text-anchor="middle" pointer-events="none" font-size="8px" fill="#000000" x="63.984225519334665" y="14.974062705725856" transform="rotate(180 63.984225519334665 11.974062705725856)" font-family="sans-serif">trek</text></g><g class="relationship" transform="translate(299.534303917647 21.765985683144017) rotate(460.0407586887411)"><path class="outline" fill="#A5ABB6" stroke="none" d="M 25 0.5 L 45.86646324316453 0.5 L 45.86646324316453 -0.5 L 25 -0.5 Z M 67.87818199316453 0.5 L 88.74464523632906 0.5 L 88.74464523632906 3.5 L 95.74464523632906 0 L 88.74464523632906 -3.5 L 88.74464523632906 -0.5 L 67.87818199316453 -0.5 Z"/><text text-anchor="middle" pointer-events="none" font-size="8px" fill="#000000" x="56.87232261816453" y="3" transform="rotate(180 56.87232261816453 0)" font-family="sans-serif">road</text></g><g class="relationship" transform="translate(299.534303917647 21.765985683144017) rotate(460.0407586887411)"><path class="outline" fill="#A5ABB6" stroke="none" d="M 21.40063509461097,-12.933012701892217 L 21.90063509461097,-12.06698729810778 A 73.63888068034619 73.63888068034619 0 0 1 47.13366120884851,-21.015505373209905 L 46.976320221059325,-22.003049708195192 A 74.63888068034619 74.63888068034619 0 0 0 21.40063509461097,-12.933012701892217 Z M 66.38014734018272,-22.538615486728162 L 66.27751889994386,-21.543895725562166 A 73.63888068034619 73.63888068034619 0 0 1 91.96572911724142,-14.000856652738017 L 90.61132285622948,-11.323995864401862 L 98.43747200019443,-11.28671884176618 L 93.77160413192401,-17.570004370519555 L 92.41719787091206,-14.8931435821834 A 74.63888068034619 74.63888068034619 0 0 0 66.38014734018272,-22.538615486728162"/><text text-anchor="middle" pointer-events="none" font-size="8px" fill="#000000" x="56.67454435011798" y="-19.40450258631921" transform="rotate(180 56.67454435011798 -22.40450258631921)" font-family="sans-serif">trek</text></g><g class="relationship" transform="translate(34.629978547167816 -148.47754008690094) rotate(529.7750290052636)"><path class="outline" fill="#A5ABB6" stroke="none" d="M 21.40063509461097,12.933012701892217 L 21.90063509461097,12.06698729810778 A 58.34622070341905 58.34622070341905 0 0 0 39.737384979078456,18.77200682875923 L 39.54309029588267,19.75295003612745 A 59.34622070341905 59.34622070341905 0 0 1 21.40063509461097,12.933012701892217 Z M 58.94623772762874,20.35942373798153 L 58.81358408620057,19.368261283377926 A 58.34622070341905 58.34622070341905 0 0 0 77.03425743328293,13.790269160186108 L 75.69944028451218,11.103586599974072 L 83.52565293190614,11.123476239756338 L 78.81401363164395,17.372512573802155 L 77.47919648287319,14.685830013590119 A 59.34622070341905 59.34622070341905 0 0 1 58.94623772762874,20.35942373798153"/><text text-anchor="middle" pointer-events="none" font-size="8px" fill="#000000" x="49.23531872314316" y="23.355174315836877" transform="rotate(180 49.23531872314316 20.355174315836877)" font-family="sans-serif">trek</text></g><g class="relationship" transform="translate(-69.60259448785368 -129.67623844087163) rotate(499.60873382613323)"><path class="outline" fill="#A5ABB6" stroke="none" d="M 24.018736134675446,-6.953439040707552 L 24.277555179777966,-5.987513214418485 A 148.63379807393312 148.63379807393312 0 0 1 51.13379567253608,-10.597719961746009 L 51.05566393301798,-11.594663004893363 A 149.63379807393312 149.63379807393312 0 0 0 24.018736134675446,-6.953439040707552 Z M 70.44110642753203,-11.854132662942561 L 70.38968560109217,-10.855455588704729 A 148.63379807393312 148.63379807393312 0 0 1 97.35969611112797,-6.965700744691611 L 96.6610753998411,-4.048179690481201 L 104.2836820228334,-5.821839260723966 L 98.2911903928438,-10.855728816972157 L 97.59256968155692,-7.9382077627617464 A 149.63379807393312 149.63379807393312 0 0 0 70.44110642753203,-11.854132662942561"/><text text-anchor="middle" pointer-events="none" font-size="8px" fill="#000000" x="60.75087030052101" y="-8.538730053018668" transform="rotate(180 60.75087030052101 -11.538730053018668)" font-family="sans-serif">trek</text></g><g class="relationship" transform="translate(-167.54635052107358 -46.345308949854854) rotate(397.7343974882076)"><path class="outline" fill="#A5ABB6" stroke="none" d="M 24.018736134675446,-6.953439040707552 L 24.277555179777966,-5.987513214418485 A 105.29582566553724 105.29582566553724 0 0 1 40.24975570995939,-8.969403825510256 L 40.14262549420245,-9.963648823924558 A 106.29582566553724 106.29582566553724 0 0 0 24.018736134675446,-6.953439040707552 Z M 59.54044968198942,-10.273127193696197 L 59.4650908482815,-9.275970713407276 A 105.29582566553724 105.29582566553724 0 0 1 75.52428598597285,-6.805118042284295 L 74.8406644197094,-3.8840460551296623 L 82.45405755037757,-5.696846385528699 L 76.43578140765744,-10.699880691823806 L 75.75215984139399,-7.7788087046691725 A 106.29582566553724 106.29582566553724 0 0 0 59.54044968198942,-10.273127193696197"/><text text-anchor="middle" pointer-events="none" font-size="8px" fill="#000000" x="49.842438503441684" y="-7.061919450126311" font-family="sans-serif">trek</text></g><g class="relationship" transform="translate(-83.0858090005855 19.01424864866297) rotate(400.0101851062276)"><path class="outline" fill="#A5ABB6" stroke="none" d="M 24.018736134675446,6.953439040707552 L 24.277555179777966,5.987513214418485 A 91.00856806389012 91.00856806389012 0 0 0 26.046699352006062,6.442574070258431 L 25.807319621353432,7.4135000945016145 A 92.00856806389012 92.00856806389012 0 0 1 24.018736134675446,6.953439040707552 Z M 66.80398712213301,8.111380917675973 L 66.5977923985423,7.132869938706733 A 91.00856806389012 91.00856806389012 0 0 0 68.38139994242576,6.738287103235816 L 67.70402105874379,3.8157611670050056 L 75.31352360757798,5.644824030683035 L 69.28457178733504,10.634988351543564 L 68.60719290365307,7.7124624153127534 A 92.00856806389012 92.00856806389012 0 0 1 66.80398712213301,8.111380917675973"/><text text-anchor="middle" pointer-events="none" font-size="8px" fill="#000000" x="46.274793317942695" y="12.575299267505486" font-family="sans-serif">twowhe…</text></g><g class="relationship" transform="translate(-83.0858090005855 19.01424864866297) rotate(400.0101851062276)"><path class="outline" fill="#A5ABB6" stroke="none" d="M 24.018736134675446,-6.953439040707552 L 24.277555179777966,-5.987513214418485 A 91.00856806389012 91.00856806389012 0 0 1 36.696065124759066,-8.404643581926166 L 36.57370037411664,-9.397128779700026 A 92.00856806389012 92.00856806389012 0 0 0 24.018736134675446,-6.953439040707552 Z M 55.97632975161387,-9.72741716134611 L 55.88781599620212,-8.731342206785513 A 91.00856806389012 91.00856806389012 0 0 1 68.38139994242576,-6.738287103235816 L 67.70402105874379,-3.8157611670050056 L 75.31352360757798,-5.644824030683035 L 69.28457178733504,-10.634988351543564 L 68.60719290365307,-7.7124624153127534 A 92.00856806389012 92.00856806389012 0 0 0 55.97632975161387,-9.72741716134611"/><text text-anchor="middle" pointer-events="none" font-size="8px" fill="#000000" x="46.274793317942674" y="-6.5752992675054855" font-family="sans-serif">trek</text></g><g class="relationship" transform="translate(-167.54635052107358 -46.345308949854854) rotate(397.7343974882076)"><path class="outline" fill="#A5ABB6" stroke="none" d="M 24.018736134675446,6.953439040707552 L 24.277555179777966,5.987513214418485 A 105.29582566553724 105.29582566553724 0 0 0 26.956439126921484,6.667763618520908 L 26.72306158370388,7.640149818711805 A 106.29582566553724 106.29582566553724 0 0 1 24.018736134675446,6.953439040707552 Z M 73.0273043756837,8.378900795833971 L 72.82506516253235,7.3995646427874675 A 105.29582566553724 105.29582566553724 0 0 0 75.52428598597285,6.805118042284295 L 74.8406644197094,3.8840460551296623 L 82.45405755037757,5.696846385528699 L 76.43578140765744,10.699880691823806 L 75.75215984139399,7.7788087046691725 A 106.29582566553724 106.29582566553724 0 0 1 73.0273043756837,8.378900795833971"/><text text-anchor="middle" pointer-events="none" font-size="8px" fill="#000000" x="49.842438503441706" y="13.061919450126325" font-family="sans-serif">twowheeler</text></g><g class="relationship" transform="translate(-69.60259448785368 -129.67623844087163) rotate(499.60873382613323)"><path class="outline" fill="#A5ABB6" stroke="none" d="M 24.018736134675446,6.953439040707552 L 24.277555179777966,5.987513214418485 A 148.63379807393312 148.63379807393312 0 0 0 37.72272519275677,8.930407831810982 L 37.55436451033627,9.916133290858738 A 149.63379807393312 149.63379807393312 0 0 1 24.018736134675446,6.953439040707552 Z M 83.9824945609134,10.5375630586598 L 83.84057687943353,9.54768459557286 A 148.63379807393312 148.63379807393312 0 0 0 97.35969611112797,6.965700744691611 L 96.6610753998411,4.048179690481201 L 104.2836820228334,5.821839260723966 L 98.2911903928438,10.855728816972157 L 97.59256968155692,7.9382077627617464 A 149.63379807393312 149.63379807393312 0 0 1 83.9824945609134,10.5375630586598"/><text text-anchor="middle" pointer-events="none" font-size="8px" fill="#000000" x="60.75087030052101" y="14.538730053018668" transform="rotate(180 60.75087030052101 11.538730053018668)" font-family="sans-serif">twowheeler</text></g><g class="relationship" transform="translate(-69.60259448785368 -129.67623844087163) rotate(400.3472689752034)"><path class="outline" fill="#A5ABB6" stroke="none" d="M 25 0.5 L 51.3776437355795 0.5 L 51.3776437355795 -0.5 L 25 -0.5 Z M 70.7135812355795 0.5 L 97.091224971159 0.5 L 97.091224971159 3.5 L 104.091224971159 0 L 97.091224971159 -3.5 L 97.091224971159 -0.5 L 70.7135812355795 -0.5 Z"/><text text-anchor="middle" pointer-events="none" font-size="8px" fill="#000000" x="61.0456124855795" y="3" font-family="sans-serif">trek</text></g><g class="relationship" transform="translate(34.629978547167816 -148.47754008690094) rotate(529.7750290052636)"><path class="outline" fill="#A5ABB6" stroke="none" d="M 25 0.5 L 25.711243383503216 0.5 L 25.711243383503216 -0.5 L 25 -0.5 Z M 73.20343088350322 0.5 L 73.91467426700643 0.5 L 73.91467426700643 3.5 L 80.91467426700643 0 L 73.91467426700643 -3.5 L 73.91467426700643 -0.5 L 73.20343088350322 -0.5 Z"/><text text-anchor="middle" pointer-events="none" font-size="8px" fill="#000000" x="49.457337133503216" y="3" transform="rotate(180 49.457337133503216 0)" font-family="sans-serif">PublicTra…</text></g><g class="relationship" transform="translate(34.629978547167816 -148.47754008690094) rotate(529.7750290052636)"><path class="outline" fill="#A5ABB6" stroke="none" d="M 21.40063509461097,-12.933012701892217 L 21.90063509461097,-12.06698729810778 A 58.34622070341905 58.34622070341905 0 0 1 38.43918315001898,-18.499501186478696 L 38.222638493930205,-19.475773900385725 A 59.34622070341905 59.34622070341905 0 0 0 21.40063509461097,-12.933012701892217 Z M 60.28142215210999,-20.16525338976416 L 60.12627028908227,-19.17736275846987 A 58.34622070341905 58.34622070341905 0 0 1 77.03425743328293,-13.790269160186108 L 75.69944028451218,-11.103586599974072 L 83.52565293190614,-11.123476239756338 L 78.81401363164395,-17.372512573802155 L 77.47919648287319,-14.685830013590119 A 59.34622070341905 59.34622070341905 0 0 0 60.28142215210999,-20.16525338976416"/><text text-anchor="middle" pointer-events="none" font-size="8px" fill="#000000" x="49.23531872314315" y="-17.355174315836877" transform="rotate(180 49.23531872314315 -20.355174315836877)" font-family="sans-serif">road</text></g><g class="relationship" transform="translate(278.48263203358465 140.66130293379413) rotate(329.0706500933745)"><path class="outline" fill="#A5ABB6" stroke="none" d="M 25 0.5 L 47.98044122649653 0.5 L 47.98044122649653 -0.5 L 25 -0.5 Z M 67.31637872649654 0.5 L 90.29681995299306 0.5 L 90.29681995299306 3.5 L 97.29681995299306 0 L 90.29681995299306 -3.5 L 90.29681995299306 -0.5 L 67.31637872649654 -0.5 Z"/><text text-anchor="middle" pointer-events="none" font-size="8px" fill="#000000" x="57.64840997649653" y="3" font-family="sans-serif">trek</text></g><g class="relationship" transform="translate(-69.60259448785368 -129.67623844087163) rotate(305.90292152854926)"><path class="outline" fill="#A5ABB6" stroke="none" d="M 25 0.5 L 49.395125698168734 0.5 L 49.395125698168734 -0.5 L 25 -0.5 Z M 68.73106319816873 0.5 L 93.12618889633747 0.5 L 93.12618889633747 3.5 L 100.12618889633747 0 L 93.12618889633747 -3.5 L 93.12618889633747 -0.5 L 68.73106319816873 -0.5 Z"/><text text-anchor="middle" pointer-events="none" font-size="8px" fill="#000000" x="59.063094448168734" y="3" font-family="sans-serif">trek</text></g><g class="relationship" transform="translate(163.5708605581109 211.62763927208576) rotate(497.3134989194122)"><path class="outline" fill="#A5ABB6" stroke="none" d="M 24.018736134675446,-6.953439040707552 L 24.277555179777966,-5.987513214418485 A 155.06476843724113 155.06476843724113 0 0 1 39.337401690565756,-9.230575863795849 L 39.17570236300167,-10.217415935674438 A 156.06476843724113 156.06476843724113 0 0 0 24.018736134675446,-6.953439040707552 Z M 85.61284113543424,-10.82438209817505 L 85.4769900341768,-9.833652832286958 A 155.06476843724113 155.06476843724113 0 0 1 100.61645542687505,-6.985316493375088 L 99.91600260352891,-4.068234759472793 L 107.53972160987142,-5.837106861217819 L 101.55039252466989,-10.874758805244817 L 100.84993970132375,-7.957677071342521 A 156.06476843724113 156.06476843724113 0 0 0 85.61284113543424,-10.82438209817505"/><text text-anchor="middle" pointer-events="none" font-size="8px" fill="#000000" x="62.37810287938365" y="-8.75793017068085" transform="rotate(180 62.37810287938365 -11.75793017068085)" font-family="sans-serif">twowheeler</text></g><g class="relationship" transform="translate(66.65223665792672 301.01930298669396) rotate(370.9356807276916)"><path class="outline" fill="#A5ABB6" stroke="none" d="M 21.40063509461097,12.933012701892217 L 21.90063509461097,12.06698729810778 A 49.97708751371776 49.97708751371776 0 0 0 35.72925314562834,17.500704721610205 L 35.505952303962076,18.475454296686358 A 50.97708751371776 50.97708751371776 0 0 1 21.40063509461097,12.933012701892217 Z M 54.90324931016562,19.128763279146483 L 54.7460400451887,18.14119796636691 A 49.97708751371776 49.97708751371776 0 0 0 68.90892506641028,13.65024593867223 L 67.58713458338764,10.957130657257265 L 75.41315913688229,11.014920691855252 L 70.67131237710711,17.24106631389218 L 69.34952189408448,14.547951032477217 A 50.97708751371776 50.97708751371776 0 0 1 54.90324931016562,19.128763279146483"/><text text-anchor="middle" pointer-events="none" font-size="8px" fill="#000000" x="45.19005312130212" y="22.23404189927593" font-family="sans-serif">trek</text></g><g class="relationship" transform="translate(66.65223665792672 301.01930298669396) rotate(370.9356807276916)"><path class="outline" fill="#A5ABB6" stroke="none" d="M 25 0.5 L 34.42203386600349 0.5 L 34.42203386600349 -0.5 L 25 -0.5 Z M 56.43375261600349 0.5 L 65.85578648200698 0.5 L 65.85578648200698 3.5 L 72.85578648200698 0 L 65.85578648200698 -3.5 L 65.85578648200698 -0.5 L 56.43375261600349 -0.5 Z"/><text text-anchor="middle" pointer-events="none" font-size="8px" fill="#000000" x="45.42789324100349" y="3" font-family="sans-serif">road</text></g><g class="relationship" transform="translate(66.65223665792672 301.01930298669396) rotate(370.9356807276916)"><path class="outline" fill="#A5ABB6" stroke="none" d="M 21.40063509461097,-12.933012701892217 L 21.90063509461097,-12.06698729810778 A 49.97708751371776 49.97708751371776 0 0 1 23.195794164463898,-12.789341541872076 L 22.7217092214287,-13.66982065393966 A 50.97708751371776 50.97708751371776 0 0 0 21.40063509461097,-12.933012701892217 Z M 67.98186578996976,-15.194201438763585 L 67.56809780189425,-14.283819072917261 A 49.97708751371776 49.97708751371776 0 0 1 68.90892506641028,-13.65024593867223 L 67.58713458338764,-10.957130657257265 L 75.41315913688229,-11.014920691855252 L 70.67131237710711,-17.24106631389218 L 69.34952189408448,-14.547951032477217 A 50.97708751371776 50.97708751371776 0 0 0 67.98186578996976,-15.194201438763585"/><text text-anchor="middle" pointer-events="none" font-size="8px" fill="#000000" x="45.19005312130213" y="-16.23404189927593" font-family="sans-serif">twowheeler</text></g><g class="relationship" transform="translate(163.5708605581109 211.62763927208576) rotate(497.3134989194122)"><path class="outline" fill="#A5ABB6" stroke="none" d="M 24.018736134675446,6.953439040707552 L 24.277555179777966,5.987513214418485 A 155.06476843724113 155.06476843724113 0 0 0 52.75868001238797,10.832770926772753 L 52.683533410224264,11.82994342347692 A 156.06476843724113 156.06476843724113 0 0 1 24.018736134675446,6.953439040707552 Z M 72.06747820262683,12.083305256177795 L 72.01842031593308,11.084509319185088 A 155.06476843724113 155.06476843724113 0 0 0 100.61645542687505,6.985316493375088 L 99.91600260352891,4.068234759472793 L 107.53972160987142,5.837106861217819 L 101.55039252466989,10.874758805244817 L 100.84993970132375,7.957677071342521 A 156.06476843724113 156.06476843724113 0 0 1 72.06747820262683,12.083305256177795"/><text text-anchor="middle" pointer-events="none" font-size="8px" fill="#000000" x="62.37810287938366" y="14.75793017068085" transform="rotate(180 62.37810287938366 11.75793017068085)" font-family="sans-serif">trek</text></g><g class="relationship" transform="translate(-167.54635052107358 -46.345308949854854) rotate(459.60104275280014)"><path class="outline" fill="#A5ABB6" stroke="none" d="M 24.018736134675446,-6.953439040707552 L 24.277555179777966,-5.987513214418485 A 134.70160366042188 134.70160366042188 0 0 1 34.236869597843935,-8.255177954787712 L 34.05198667634669,-9.237938508197686 A 135.70160366042188 135.70160366042188 0 0 0 24.018736134675446,-6.953439040707552 Z M 80.45487000435234,-9.893066709588084 L 80.29780498952215,-8.905478444613067 A 134.70160366042188 134.70160366042188 0 0 1 90.3171681328429,-6.9198779674585165 L 89.62282734536814,-4.001335373825704 L 97.24282431589857,-5.786173228956237 L 91.24295584947589,-10.811268092302267 L 90.54861506200113,-7.892725498669455 A 135.70160366042188 135.70160366042188 0 0 0 80.45487000435234,-9.893066709588084"/><text text-anchor="middle" pointer-events="none" font-size="8px" fill="#000000" x="57.2322737593836" y="-8.063886513494879" transform="rotate(180 57.2322737593836 -11.063886513494879)" font-family="sans-serif">twowheeler</text></g><g class="relationship" transform="translate(-187.8216099623421 73.51595674124115) rotate(332.50873760334366)"><path class="outline" fill="#A5ABB6" stroke="none" d="M 21.40063509461097,12.933012701892217 L 21.90063509461097,12.06698729810778 A 70.88719746579697 70.88719746579697 0 0 0 44.48876690771561,20.38864964567763 L 44.30741586860877,21.372068071687067 A 71.88719746579697 71.88719746579697 0 0 1 21.40063509461097,12.933012701892217 Z M 66.37682966148427,21.994342401450638 L 66.25118008614406,21.002267714636773 A 70.88719746579697 70.88719746579697 0 0 0 89.27233032186925,13.966615303003524 L 87.92110904486368,11.288145392668993 L 95.74729699215075,11.260177308379642 L 91.07395869121,17.5379085167829 L 89.72273741420443,14.859438606448366 A 71.88719746579697 71.88719746579697 0 0 1 66.37682966148427,21.994342401450638"/><text text-anchor="middle" pointer-events="none" font-size="8px" fill="#000000" x="55.332183445392225" y="25.03571047064075" font-family="sans-serif">road</text></g><g class="relationship" transform="translate(-187.8216099623421 73.51595674124115) rotate(332.50873760334366)"><path class="outline" fill="#A5ABB6" stroke="none" d="M 25 0.5 L 45.865971039135914 0.5 L 45.865971039135914 -0.5 L 25 -0.5 Z M 65.20190853913591 0.5 L 86.06787957827183 0.5 L 86.06787957827183 3.5 L 93.06787957827183 0 L 86.06787957827183 -3.5 L 86.06787957827183 -0.5 L 65.20190853913591 -0.5 Z"/><text text-anchor="middle" pointer-events="none" font-size="8px" fill="#000000" x="55.533939789135914" y="3" font-family="sans-serif">trek</text></g><g class="relationship" transform="translate(-187.8216099623421 73.51595674124115) rotate(332.50873760334366)"><path class="outline" fill="#A5ABB6" stroke="none" d="M 21.40063509461097,-12.933012701892217 L 21.90063509461097,-12.06698729810778 A 70.88719746579697 70.88719746579697 0 0 1 32.795531685388546,-17.177670384811222 L 32.449225116364346,-18.115791784338327 A 71.88719746579697 71.88719746579697 0 0 0 21.40063509461097,-12.933012701892217 Z M 78.39966378984926,-19.411421051895772 L 78.1067683828144,-18.45527656462521 A 70.88719746579697 70.88719746579697 0 0 1 89.27233032186925,-13.966615303003524 L 87.92110904486368,-11.288145392668993 L 95.74729699215075,-11.260177308379642 L 91.07395869121,-17.5379085167829 L 89.72273741420443,-14.859438606448366 A 71.88719746579697 71.88719746579697 0 0 0 78.39966378984926,-19.411421051895772"/><text text-anchor="middle" pointer-events="none" font-size="8px" fill="#000000" x="55.33218344539222" y="-19.03571047064075" font-family="sans-serif">twowheeler</text></g><g class="relationship" transform="translate(-167.54635052107358 -46.345308949854854) rotate(459.60104275280014)"><path class="outline" fill="#A5ABB6" stroke="none" d="M 24.018736134675446,6.953439040707552 L 24.277555179777966,5.987513214418485 A 134.70160366042188 134.70160366042188 0 0 0 47.62114271035275,10.083867378186568 L 47.535622177637826,11.080203786476517 A 135.70160366042188 135.70160366042188 0 0 1 24.018736134675446,6.953439040707552 Z M 66.92459988212421,11.353942510868933 L 66.86724091171253,10.355588891897526 A 134.70160366042188 134.70160366042188 0 0 0 90.3171681328429,6.9198779674585165 L 89.62282734536814,4.001335373825704 L 97.24282431589857,5.786173228956237 L 91.24295584947589,10.811268092302267 L 90.54861506200113,7.892725498669455 A 135.70160366042188 135.70160366042188 0 0 1 66.92459988212421,11.353942510868933"/><text text-anchor="middle" pointer-events="none" font-size="8px" fill="#000000" x="57.232273759383666" y="14.063886513494879" transform="rotate(180 57.232273759383666 11.063886513494879)" font-family="sans-serif">trek</text></g><g class="relationship" transform="translate(66.65223665792672 301.01930298669396) rotate(417.3461611144521)"><path class="outline" fill="#A5ABB6" stroke="none" d="M 25 0.5 L 47.59239296795819 0.5 L 47.59239296795819 -0.5 L 25 -0.5 Z M 66.92833046795819 0.5 L 89.52072343591638 0.5 L 89.52072343591638 3.5 L 96.52072343591638 0 L 89.52072343591638 -3.5 L 89.52072343591638 -0.5 L 66.92833046795819 -0.5 Z"/><text text-anchor="middle" pointer-events="none" font-size="8px" fill="#000000" x="57.26036171795819" y="3" font-family="sans-serif">trek</text></g><g class="relationship" transform="translate(132.22022198633582 403.33316091592076) rotate(343.3703431375709)"><path class="outline" fill="#A5ABB6" stroke="none" d="M 25 0.5 L 51.82419875109686 0.5 L 51.82419875109686 -0.5 L 25 -0.5 Z M 71.16013625109686 0.5 L 97.98433500219372 0.5 L 97.98433500219372 3.5 L 104.98433500219372 0 L 97.98433500219372 -3.5 L 97.98433500219372 -0.5 L 71.16013625109686 -0.5 Z"/><text text-anchor="middle" pointer-events="none" font-size="8px" fill="#000000" x="61.49216750109686" y="3" font-family="sans-serif">trek</text></g><g class="relationship" transform="translate(-187.8216099623421 73.51595674124115) rotate(407.3865300858355)"><path class="outline" fill="#A5ABB6" stroke="none" d="M 25 0.5 L 44.62739712500015 0.5 L 44.62739712500015 -0.5 L 25 -0.5 Z M 63.96333462500015 0.5 L 83.5907317500003 0.5 L 83.5907317500003 3.5 L 90.5907317500003 0 L 83.5907317500003 -3.5 L 83.5907317500003 -0.5 L 63.96333462500015 -0.5 Z"/><text text-anchor="middle" pointer-events="none" font-size="8px" fill="#000000" x="54.29536587500015" y="3" font-family="sans-serif">trek</text></g><g class="relationship" transform="translate(-109.56102024680366 158.58356140880358) rotate(323.7122535434488)"><path class="outline" fill="#A5ABB6" stroke="none" d="M 25 0.5 L 50.608003998063 0.5 L 50.608003998063 -0.5 L 25 -0.5 Z M 69.943941498063 0.5 L 95.551945496126 0.5 L 95.551945496126 3.5 L 102.551945496126 0 L 95.551945496126 -3.5 L 95.551945496126 -0.5 L 69.943941498063 -0.5 Z"/><text text-anchor="middle" pointer-events="none" font-size="8px" fill="#000000" x="60.275972748063" y="3" font-family="sans-serif">trek</text></g></g><g class="layer nodes"><g class="node" transform="translate(299.534303917647,21.765985683144017)"><circle class="outline" cx="0" cy="0" r="25" fill="#8DCC93" stroke="#5db665" stroke-width="2px"/><text text-anchor="middle" pointer-events="none" font-family="sans-serif" dy="1.5625" font-size="25" fill="#2A2C34"/><text text-anchor="middle" pointer-events="none" x="0" y="5" font-size="10px" fill="#2A2C34" font-family="sans-serif"> Darjeeling</text></g><g class="node" transform="translate(256.7679064097449,366.13367636667704)"><circle class="outline" cx="0" cy="0" r="25" fill="#ECB5C9" stroke="#da7298" stroke-width="2px"/><text text-anchor="middle" pointer-events="none" font-family="sans-serif" dy="1.5625" font-size="25" fill="#2A2C34"/><text text-anchor="middle" pointer-events="none" x="0" y="5" font-size="10px" fill="#2A2C34" font-family="sans-serif"> Sandak…</text></g><g class="node" transform="translate(34.629978547167816,-148.47754008690094)"><circle class="outline" cx="0" cy="0" r="25" fill="#8DCC93" stroke="#5db665" stroke-width="2px"/><text text-anchor="middle" pointer-events="none" font-family="sans-serif" dy="1.5625" font-size="25" fill="#2A2C34"/><text text-anchor="middle" pointer-events="none" x="0" y="5" font-size="10px" fill="#2A2C34" font-family="sans-serif"> Darjeeling</text></g><g class="node" transform="translate(-6.747152824539753,83.09311522172746)"><circle class="outline" cx="0" cy="0" r="25" fill="#ECB5C9" stroke="#da7298" stroke-width="2px"/><text text-anchor="middle" pointer-events="none" font-family="sans-serif" dy="1.5625" font-size="25" fill="#2A2C34"/><text text-anchor="middle" pointer-events="none" x="0" y="5" font-size="10px" fill="#2A2C34" font-family="sans-serif"> Sandak…</text></g><g class="node" transform="translate(383.3890558071209,77.80309406922312)"><circle class="outline" cx="0" cy="0" r="25" fill="#4C8EDA" stroke="#2870c2" stroke-width="2px"/><text text-anchor="middle" pointer-events="none" font-family="sans-serif" dy="1.5625" font-size="25" fill="#FFFFFF"/><text text-anchor="middle" pointer-events="none" x="0" y="5" font-size="10px" fill="#FFFFFF" font-family="sans-serif"> Tumbling</text></g><g class="node" transform="translate(419.06615251145985,183.56180334311023)"><circle class="outline" cx="0" cy="0" r="25" fill="#4C8EDA" stroke="#2870c2" stroke-width="2px"/><text text-anchor="middle" pointer-events="none" font-family="sans-serif" dy="1.5625" font-size="25" fill="#FFFFFF"/><text text-anchor="middle" pointer-events="none" x="0" y="5" font-size="10px" fill="#FFFFFF" font-family="sans-serif"> Gairibus</text></g><g class="node" transform="translate(325.76797278950863,256.1896379817232)"><circle class="outline" cx="0" cy="0" r="25" fill="#4C8EDA" stroke="#2870c2" stroke-width="2px"/><text text-anchor="middle" pointer-events="none" font-family="sans-serif" dy="1.5625" font-size="25" fill="#FFFFFF"/><text text-anchor="middle" pointer-events="none" x="0" y="5" font-size="10px" fill="#FFFFFF" font-family="sans-serif"> BhikeBh…</text></g><g class="node" transform="translate(3.7731119339242674,-231.0299204402296)"><circle class="outline" cx="0" cy="0" r="25" fill="#4C8EDA" stroke="#2870c2" stroke-width="2px"/><text text-anchor="middle" pointer-events="none" font-family="sans-serif" dy="1.5625" font-size="25" fill="#FFFFFF"/><text text-anchor="middle" pointer-events="none" x="0" y="5" font-size="10px" fill="#FFFFFF" font-family="sans-serif"> Tumbling</text></g><g class="node" transform="translate(105.07315344341846,-155.28580108193665)"><circle class="outline" cx="0" cy="0" r="25" fill="#4C8EDA" stroke="#2870c2" stroke-width="2px"/><text text-anchor="middle" pointer-events="none" font-family="sans-serif" dy="1.5625" font-size="25" fill="#FFFFFF"/><text text-anchor="middle" pointer-events="none" x="0" y="5" font-size="10px" fill="#FFFFFF" font-family="sans-serif"> Gairibus</text></g><g class="node" transform="translate(28.782277724529045,-46.10015762639753)"><circle class="outline" cx="0" cy="0" r="25" fill="#4C8EDA" stroke="#2870c2" stroke-width="2px"/><text text-anchor="middle" pointer-events="none" font-family="sans-serif" dy="1.5625" font-size="25" fill="#FFFFFF"/><text text-anchor="middle" pointer-events="none" x="0" y="5" font-size="10px" fill="#FFFFFF" font-family="sans-serif"> BhikeBh…</text></g><g class="node" transform="translate(278.48263203358465,140.66130293379413)"><circle class="outline" cx="0" cy="0" r="25" fill="#8DCC93" stroke="#5db665" stroke-width="2px"/><text text-anchor="middle" pointer-events="none" font-family="sans-serif" dy="1.5625" font-size="25" fill="#2A2C34"/><text text-anchor="middle" pointer-events="none" x="0" y="5" font-size="10px" fill="#2A2C34" font-family="sans-serif"> Rimbik</text></g><g class="node" transform="translate(163.5708605581109,211.62763927208576)"><circle class="outline" cx="0" cy="0" r="25" fill="#4C8EDA" stroke="#2870c2" stroke-width="2px"/><text text-anchor="middle" pointer-events="none" font-family="sans-serif" dy="1.5625" font-size="25" fill="#FFFFFF"/><text text-anchor="middle" pointer-events="none" x="0" y="5" font-size="10px" fill="#FFFFFF" font-family="sans-serif"> Sirikhola</text></g><g class="node" transform="translate(162.73103680276574,319.5832225819793)"><circle class="outline" cx="0" cy="0" r="25" fill="#4C8EDA" stroke="#2870c2" stroke-width="2px"/><text text-anchor="middle" pointer-events="none" font-family="sans-serif" dy="1.5625" font-size="25" fill="#FFFFFF"/><text text-anchor="middle" pointer-events="none" x="0" y="5" font-size="10px" fill="#FFFFFF" font-family="sans-serif"> Gurdum</text></g><g class="node" transform="translate(-69.60259448785368,-129.67623844087163)"><circle class="outline" cx="0" cy="0" r="25" fill="#8DCC93" stroke="#5db665" stroke-width="2px"/><text text-anchor="middle" pointer-events="none" font-family="sans-serif" dy="1.5625" font-size="25" fill="#2A2C34"/><text text-anchor="middle" pointer-events="none" x="0" y="5" font-size="10px" fill="#2A2C34" font-family="sans-serif"> Rimbik</text></g><g class="node" transform="translate(-167.54635052107358,-46.345308949854854)"><circle class="outline" cx="0" cy="0" r="25" fill="#4C8EDA" stroke="#2870c2" stroke-width="2px"/><text text-anchor="middle" pointer-events="none" font-family="sans-serif" dy="1.5625" font-size="25" fill="#FFFFFF"/><text text-anchor="middle" pointer-events="none" x="0" y="5" font-size="10px" fill="#FFFFFF" font-family="sans-serif"> Sirikhola</text></g><g class="node" transform="translate(-83.0858090005855,19.01424864866297)"><circle class="outline" cx="0" cy="0" r="25" fill="#4C8EDA" stroke="#2870c2" stroke-width="2px"/><text text-anchor="middle" pointer-events="none" font-family="sans-serif" dy="1.5625" font-size="25" fill="#FFFFFF"/><text text-anchor="middle" pointer-events="none" x="0" y="5" font-size="10px" fill="#FFFFFF" font-family="sans-serif"> Gurdum</text></g><g class="node" transform="translate(66.65223665792672,301.01930298669396)"><circle class="outline" cx="0" cy="0" r="25" fill="#4C8EDA" stroke="#2870c2" stroke-width="2px"/><text text-anchor="middle" pointer-events="none" font-family="sans-serif" dy="1.5625" font-size="25" fill="#FFFFFF"/><text text-anchor="middle" pointer-events="none" x="0" y="5" font-size="10px" fill="#FFFFFF" font-family="sans-serif"> Rammam</text></g><g class="node" transform="translate(-187.8216099623421,73.51595674124115)"><circle class="outline" cx="0" cy="0" r="25" fill="#4C8EDA" stroke="#2870c2" stroke-width="2px"/><text text-anchor="middle" pointer-events="none" font-family="sans-serif" dy="1.5625" font-size="25" fill="#FFFFFF"/><text text-anchor="middle" pointer-events="none" x="0" y="5" font-size="10px" fill="#FFFFFF" font-family="sans-serif"> Rammam</text></g><g class="node" transform="translate(132.22022198633582,403.33316091592076)"><circle class="outline" cx="0" cy="0" r="25" fill="#ECB5C9" stroke="#da7298" stroke-width="2px"/><text text-anchor="middle" pointer-events="none" font-family="sans-serif" dy="1.5625" font-size="25" fill="#2A2C34"/><text text-anchor="middle" pointer-events="none" x="0" y="5" font-size="10px" fill="#2A2C34" font-family="sans-serif"> Sabargr…</text></g><g class="node" transform="translate(-109.56102024680366,158.58356140880358)"><circle class="outline" cx="0" cy="0" r="25" fill="#ECB5C9" stroke="#da7298" stroke-width="2px"/><text text-anchor="middle" pointer-events="none" font-family="sans-serif" dy="1.5625" font-size="25" fill="#2A2C34"/><text text-anchor="middle" pointer-events="none" x="0" y="5" font-size="10px" fill="#2A2C34" font-family="sans-serif"> Sabargr…</text></g></g></svg>