<svg xmlns="http://www.w3.org/2000/svg" width="598.90380859375" height="585.78271484375" viewBox="-204.2747344970703 -181.41595458984375 598.90380859375 585.78271484375"><title>Neo4j Graph Visualization</title><desc>Created using Neo4j (http://www.neo4j.com/)</desc><g class="layer relationships"><g class="relationship" transform="translate(177.55138161841842 375.3667949623927) rotate(257.9972889630857)"><path class="outline" fill="#A5ABB6" stroke="none" d="M 21.40063509461097,12.933012701892217 L 21.90063509461097,12.06698729810778 A 55.549384852411976 55.549384852411976 0 0 0 23.339316558025956,12.869405905979733 L 22.865215701054044,13.749876449165875 A 56.549384852411976 56.549384852411976 0 0 1 21.40063509461097,12.933012701892217 Z M 73.24438166941637,15.363433370673128 L 72.8275945689004,14.454429238205364 A 55.549384852411976 55.549384852411976 0 0 0 74.31467489890998,13.745717683670227 L 72.9840023391567,11.05697996148168 L 80.81017501064214,11.088937997943997 L 76.08890497858103,17.330701313254956 L 74.75823241882775,14.641963591066409 A 56.549384852411976 56.549384852411976 0 0 1 73.24438166941637,15.363433370673128"/><text text-anchor="middle" pointer-events="none" font-size="8px" fill="#000000" x="47.88108340668802" y="22.9804678120352" transform="rotate(180 47.88108340668802 19.9804678120352)" font-family="sans-serif">PRODUCED</text></g><g class="relationship" transform="translate(177.55138161841842 375.3667949623927) rotate(257.9972889630857)"><path class="outline" fill="#A5ABB6" stroke="none" d="M 25 0.5 L 26.219489472773347 0.5 L 26.219489472773347 -0.5 L 25 -0.5 Z M 69.99683322277335 0.5 L 71.2163226955467 0.5 L 71.2163226955467 3.5 L 78.2163226955467 0 L 71.2163226955467 -3.5 L 71.2163226955467 -0.5 L 69.99683322277335 -0.5 Z"/><text text-anchor="middle" pointer-events="none" font-size="8px" fill="#000000" x="48.10816134777335" y="3" transform="rotate(180 48.10816134777335 0)" font-family="sans-serif">DIRECT…</text></g><g class="relationship" transform="translate(177.55138161841842 375.3667949623927) rotate(257.9972889630857)"><path class="outline" fill="#A5ABB6" stroke="none" d="M 21.40063509461097,-12.933012701892217 L 21.90063509461097,-12.06698729810778 A 55.549384852411976 55.549384852411976 0 0 1 30.56800832791565,-16.119606691630082 L 30.22403837678717,-17.058587347831626 A 56.549384852411976 56.549384852411976 0 0 0 21.40063509461097,-12.933012701892217 Z M 65.68891371969102,-18.19446552246974 L 65.40573493285419,-17.23539838473348 A 55.549384852411976 55.549384852411976 0 0 1 74.31467489890998,-13.745717683670227 L 72.9840023391567,-11.05697996148168 L 80.81017501064214,-11.088937997943997 L 76.08890497858103,-17.330701313254956 L 74.75823241882775,-14.641963591066409 A 56.549384852411976 56.549384852411976 0 0 0 65.68891371969102,-18.19446552246974"/><text text-anchor="middle" pointer-events="none" font-size="8px" fill="#000000" x="47.88108340668802" y="-16.9804678120352" transform="rotate(180 47.88108340668802 -19.9804678120352)" font-family="sans-serif">WROTE</text></g><g class="relationship" transform="translate(356.4790000439814 194.3523649923189) rotate(274.8804894287351)"><path class="outline" fill="#A5ABB6" stroke="none" d="M 24.018736134675446,6.953439040707552 L 24.277555179777966,5.987513214418485 A 106.80296570958146 106.80296570958146 0 0 0 27.120003831000933,6.707474105999594 L 26.887798734606093,7.680140951948545 A 107.80296570958146 107.80296570958146 0 0 1 24.018736134675446,6.953439040707552 Z M 73.6171083014421,8.420756282279328 L 73.41584378724457,7.441219353253771 A 106.80296570958146 106.80296570958146 0 0 0 76.27968045986694,6.811697683421427 L 75.59544430071601,3.890769598289858 L 83.20921868503243,5.701967992924495 L 77.19199533873486,10.706268463596851 L 76.50775917958393,7.785340378465282 A 107.80296570958146 107.80296570958146 0 0 1 73.6171083014421,8.420756282279328"/><text text-anchor="middle" pointer-events="none" font-size="8px" fill="#000000" x="50.21975988283469" y="13.113261709234308" font-family="sans-serif">DIRECTED</text></g><g class="relationship" transform="translate(356.4790000439814 194.3523649923189) rotate(274.8804894287351)"><path class="outline" fill="#A5ABB6" stroke="none" d="M 24.018736134675446,-6.953439040707552 L 24.277555179777966,-5.987513214418485 A 106.80296570958146 106.80296570958146 0 0 1 32.532332272860025,-7.8522626086414675 L 32.35080300185918,-8.835648150415352 A 107.80296570958146 107.80296570958146 0 0 0 24.018736134675446,-6.953439040707552 Z M 68.1202296835942,-9.402559709845661 L 67.96995521945388,-8.413915392900819 A 106.80296570958146 106.80296570958146 0 0 1 76.27968045986694,-6.811697683421427 L 75.59544430071601,-3.890769598289858 L 83.20921868503243,-5.701967992924495 L 77.19199533873486,-10.706268463596851 L 76.50775917958393,-7.785340378465282 A 107.80296570958146 107.80296570958146 0 0 0 68.1202296835942,-9.402559709845661"/><text text-anchor="middle" pointer-events="none" font-size="8px" fill="#000000" x="50.219759882834666" y="-7.113261709234308" font-family="sans-serif">WROTE</text></g><g class="relationship" transform="translate(258.9254145200814 91.89890059444507) rotate(357.4742246530859)"><path class="outline" fill="#A5ABB6" stroke="none" d="M 24.018736134675446,6.953439040707552 L 24.277555179777966,5.987513214418485 A 105.31811834790473 105.31811834790473 0 0 0 26.755918156130104,6.6194365870558585 L 26.520631272589426,7.591362552566451 A 106.31811834790473 106.31811834790473 0 0 1 24.018736134675446,6.953439040707552 Z M 73.2423636395252,8.336701096208785 L 73.03819831028264,7.357764674200041 A 105.31811834790473 105.31811834790473 0 0 0 75.53545683353688,6.805215979990833 L 74.85182611906626,3.8841461338159107 L 82.46522492702347,5.696922620588531 L 76.44696445283105,10.69997577489073 L 75.76333373836043,7.778905928715807 A 106.31811834790473 106.31811834790473 0 0 1 73.2423636395252,8.336701096208785"/><text text-anchor="middle" pointer-events="none" font-size="8px" fill="#000000" x="49.84801833516574" y="13.062678861386445" font-family="sans-serif">DIRECTED</text></g><g class="relationship" transform="translate(258.9254145200814 91.89890059444507) rotate(357.4742246530859)"><path class="outline" fill="#A5ABB6" stroke="none" d="M 24.018736134675446,-6.953439040707552 L 24.277555179777966,-5.987513214418485 A 105.31811834790473 105.31811834790473 0 0 1 32.16464042876329,-7.77932846686717 L 31.980709592572094,-8.762267654964788 A 106.31811834790473 106.31811834790473 0 0 0 24.018736134675446,-6.953439040707552 Z M 67.74771494487226,-9.332848545895047 L 67.59523082274694,-8.344542625392862 A 105.31811834790473 105.31811834790473 0 0 1 75.53545683353688,-6.805215979990833 L 74.85182611906626,-3.8841461338159107 L 82.46522492702347,-5.696922620588531 L 76.44696445283105,-10.69997577489073 L 75.76333373836043,-7.778905928715807 A 106.31811834790473 106.31811834790473 0 0 0 67.74771494487226,-9.332848545895047"/><text text-anchor="middle" pointer-events="none" font-size="8px" fill="#000000" x="49.848018335165726" y="-7.062678861386445" font-family="sans-serif">WROTE</text></g><g class="relationship" transform="translate(280.28207465714775 -127.5432645669453) rotate(505.7139284348471)"><path class="outline" fill="#A5ABB6" stroke="none" d="M 21.40063509461097,12.933012701892217 L 21.90063509461097,12.06698729810778 A 57.01670273386578 57.01670273386578 0 0 0 31.255424800668067,16.392383931069503 L 30.91949584051269,17.334271256458756 A 58.01670273386578 58.01670273386578 0 0 1 21.40063509461097,12.933012701892217 Z M 66.40736387779111,18.456356061831848 L 66.13160919573627,17.495128016399946 A 57.01670273386578 57.01670273386578 0 0 0 75.74096743589637,13.769355520761579 L 74.40809585127002,11.081707229244323 L 82.23429204687436,11.107263205219626 L 77.51812954873151,17.35288657611792 L 76.18525796410516,14.665238284600665 A 58.01670273386578 58.01670273386578 0 0 1 66.40736387779111,18.456356061831848"/><text text-anchor="middle" pointer-events="none" font-size="8px" fill="#000000" x="48.59128411201609" y="23.177047394016654" transform="rotate(180 48.59128411201609 20.177047394016654)" font-family="sans-serif">WROTE</text></g><g class="relationship" transform="translate(280.28207465714775 -127.5432645669453) rotate(505.7139284348471)"><path class="outline" fill="#A5ABB6" stroke="none" d="M 25 0.5 L 25.370368071425744 0.5 L 25.370368071425744 -0.5 L 25 -0.5 Z M 72.26099307142574 0.5 L 72.63136114285149 0.5 L 72.63136114285149 3.5 L 79.63136114285149 0 L 72.63136114285149 -3.5 L 72.63136114285149 -0.5 L 72.26099307142574 -0.5 Z"/><text text-anchor="middle" pointer-events="none" font-size="8px" fill="#000000" x="48.815680571425744" y="3" transform="rotate(180 48.815680571425744 0)" font-family="sans-serif">DIRECTED</text></g><g class="relationship" transform="translate(280.28207465714775 -127.5432645669453) rotate(505.7139284348471)"><path class="outline" fill="#A5ABB6" stroke="none" d="M 21.40063509461097,-12.933012701892217 L 21.90063509461097,-12.06698729810778 A 57.01670273386578 57.01670273386578 0 0 1 23.99143361553981,-13.216465795267936 L 23.52810354594052,-14.102651580871111 A 58.01670273386578 58.01670273386578 0 0 0 21.40063509461097,-12.933012701892217 Z M 73.98814778984064,-15.698139054648259 L 73.5817275657121,-14.78445278386419 A 57.01670273386578 57.01670273386578 0 0 1 75.74096743589637,-13.769355520761579 L 74.40809585127002,-11.081707229244323 L 82.23429204687436,-11.107263205219626 L 77.51812954873151,-17.35288657611792 L 76.18525796410516,-14.665238284600665 A 58.01670273386578 58.01670273386578 0 0 0 73.98814778984064,-15.698139054648259"/><text text-anchor="middle" pointer-events="none" font-size="8px" fill="#000000" x="48.59128411201608" y="-17.177047394016654" transform="rotate(180 48.59128411201608 -20.177047394016654)" font-family="sans-serif">PRODUCED</text></g><g class="relationship" transform="translate(65.94835872958137 -130.59706962869285) rotate(192.28467662999822)"><path class="outline" fill="#A5ABB6" stroke="none" d="M 21.40063509461097,12.933012701892217 L 21.90063509461097,12.06698729810778 A 54.8550680922391 54.8550680922391 0 0 0 30.243514657928205,15.989253309135982 L 29.895604152180383,16.92678105805347 A 55.8550680922391 55.8550680922391 0 0 1 21.40063509461097,12.933012701892217 Z M 65.34888883312269,18.069283357527127 L 65.06206222562602,17.111300843473792 A 54.8550680922391 54.8550680922391 0 0 0 73.64016407791262,13.734323099827785 L 72.31055156719795,11.045061013055463 L 80.13671103216716,11.080104255955602 L 75.41298075886552,17.32000588219088 L 74.08336824815085,14.630743795418558 A 55.8550680922391 55.8550680922391 0 0 1 65.34888883312269,18.069283357527127"/><text text-anchor="middle" pointer-events="none" font-size="8px" fill="#000000" x="47.54524606246085" y="22.88745249461416" transform="rotate(180 47.54524606246085 19.88745249461416)" font-family="sans-serif">WROTE</text></g><g class="relationship" transform="translate(65.94835872958137 -130.59706962869285) rotate(192.28467662999822)"><path class="outline" fill="#A5ABB6" stroke="none" d="M 25 0.5 L 25.884942335968248 0.5 L 25.884942335968248 -0.5 L 25 -0.5 Z M 69.66228608596825 0.5 L 70.5472284219365 0.5 L 70.5472284219365 3.5 L 77.5472284219365 0 L 70.5472284219365 -3.5 L 70.5472284219365 -0.5 L 69.66228608596825 -0.5 Z"/><text text-anchor="middle" pointer-events="none" font-size="8px" fill="#000000" x="47.77361421096825" y="3" transform="rotate(180 47.77361421096825 0)" font-family="sans-serif">DIRECT…</text></g><g class="relationship" transform="translate(65.94835872958137 -130.59706962869285) rotate(192.28467662999822)"><path class="outline" fill="#A5ABB6" stroke="none" d="M 21.40063509461097,-12.933012701892217 L 21.90063509461097,-12.06698729810778 A 54.8550680922391 54.8550680922391 0 0 1 23.032446838861855,-12.702703074289154 L 22.553079604139764,-13.580317485220803 A 55.8550680922391 55.8550680922391 0 0 0 21.40063509461097,-12.933012701892217 Z M 72.89163860289244,-15.20250623094175 L 72.4697705385075,-14.295848998989065 A 54.8550680922391 54.8550680922391 0 0 1 73.64016407791262,-13.734323099827785 L 72.31055156719795,-11.045061013055463 L 80.13671103216716,-11.080104255955602 L 75.41298075886552,-17.32000588219088 L 74.08336824815085,-14.630743795418558 A 55.8550680922391 55.8550680922391 0 0 0 72.89163860289244,-15.20250623094175"/><text text-anchor="middle" pointer-events="none" font-size="8px" fill="#000000" x="47.54524606246085" y="-16.88745249461416" transform="rotate(180 47.54524606246085 -19.88745249461416)" font-family="sans-serif">PRODUCED</text></g><g class="relationship" transform="translate(-36.9951804989757 54.02044544491228) rotate(204.18865008004803)"><path class="outline" fill="#A5ABB6" stroke="none" d="M 24.018736134675446,-6.953439040707552 L 24.277555179777966,-5.987513214418485 A 108.8648242144199 108.8648242144199 0 0 1 33.04341958398824,-7.952592385784669 L 32.8651211704806,-8.93656884675346 A 109.8648242144199 109.8648242144199 0 0 0 24.018736134675446,-6.953439040707552 Z M 68.63769862519327,-9.498457471408628 L 68.49039166218024,-8.509366647142272 A 108.8648242144199 108.8648242144199 0 0 1 77.31364848025908,-6.8205641054094235 L 76.62858412733952,-3.8998301510139015 L 84.2428717660019,-5.708869607663029 L 78.22706761748516,-10.714876044603452 L 77.54200326456561,-7.79414209020793 A 109.8648242144199 109.8648242144199 0 0 0 68.63769862519327,-9.498457471408628"/><text text-anchor="middle" pointer-events="none" font-size="8px" fill="#000000" x="50.73623685075626" y="-7.183503531729215" transform="rotate(180 50.73623685075626 -10.183503531729215)" font-family="sans-serif">WROTE</text></g><g class="relationship" transform="translate(-36.9951804989757 54.02044544491228) rotate(204.18865008004803)"><path class="outline" fill="#A5ABB6" stroke="none" d="M 24.018736134675446,6.953439040707552 L 24.277555179777966,5.987513214418485 A 108.8648242144199 108.8648242144199 0 0 0 27.626309944924454,6.828127537895 L 27.39825156828681,7.80177499814198 A 109.8648242144199 109.8648242144199 0 0 1 24.018736134675446,6.953439040707552 Z M 74.1375115236699,8.535919987470152 L 73.94014474453463,7.555590270235285 A 108.8648242144199 108.8648242144199 0 0 0 77.31364848025908,6.8205641054094235 L 76.62858412733952,3.8998301510139015 L 84.2428717660019,5.708869607663029 L 78.22706761748516,10.714876044603452 L 77.54200326456561,7.79414209020793 A 109.8648242144199 109.8648242144199 0 0 1 74.1375115236699,8.535919987470152"/><text text-anchor="middle" pointer-events="none" font-size="8px" fill="#000000" x="50.73623685075624" y="13.183503531729215" transform="rotate(180 50.73623685075624 10.183503531729215)" font-family="sans-serif">DIRECTED</text></g><g class="relationship" transform="translate(-175.2747269452429 108.54149184314747) rotate(291.61453522513796)"><path class="outline" fill="#A5ABB6" stroke="none" d="M 24.018736134675446,-6.953439040707552 L 24.277555179777966,-5.987513214418485 A 104.7045246666298 104.7045246666298 0 0 1 26.60559917443878,-6.582764669865455 L 26.369014545681427,-7.554375555681247 A 105.7045246666298 105.7045246666298 0 0 0 24.018736134675446,-6.953439040707552 Z M 73.08750950643193,-8.301681626488914 L 72.88212161690691,-7.323000976411251 A 104.7045246666298 104.7045246666298 0 0 1 75.22801290060879,-6.802513492085707 L 74.54463462145688,-3.881384578877089 L 82.15787674462089,-5.694818992932665 L 76.13918393947802,-10.69735204303053 L 75.4558056603261,-7.776223129821913 A 105.7045246666298 105.7045246666298 0 0 0 73.08750950643193,-8.301681626488914"/><text text-anchor="middle" pointer-events="none" font-size="8px" fill="#000000" x="49.694450647188525" y="-7.041776618798082" font-family="sans-serif">DIRECTED</text></g><g class="relationship" transform="translate(-175.2747269452429 108.54149184314747) rotate(291.61453522513796)"><path class="outline" fill="#A5ABB6" stroke="none" d="M 24.018736134675446,6.953439040707552 L 24.277555179777966,5.987513214418485 A 104.7045246666298 104.7045246666298 0 0 0 32.01278937420561,7.749016390990093 L 31.827847119232803,8.731765780369486 A 105.7045246666298 105.7045246666298 0 0 1 24.018736134675446,6.953439040707552 Z M 67.59381243827225,9.30387588438009 L 67.44039675225969,8.315714142920086 A 104.7045246666298 104.7045246666298 0 0 0 75.22801290060879,6.802513492085707 L 74.54463462145688,3.881384578877089 L 82.15787674462089,5.694818992932665 L 76.13918393947802,10.69735204303053 L 75.4558056603261,7.776223129821913 A 105.7045246666298 105.7045246666298 0 0 1 67.59381243827225,9.30387588438009"/><text text-anchor="middle" pointer-events="none" font-size="8px" fill="#000000" x="49.69445064718856" y="13.041776618798082" font-family="sans-serif">WROTE</text></g><g class="relationship" transform="translate(-3.5274524660570172 251.41053022253706) rotate(502.2450312678248)"><path class="outline" fill="#A5ABB6" stroke="none" d="M 21.40063509461097,12.933012701892217 L 21.90063509461097,12.06698729810778 A 55.918638444817205 55.918638444817205 0 0 0 25.66458385736797,14.05310128521269 L 25.231895023509313,14.954644613652334 A 56.918638444817205 56.918638444817205 0 0 1 21.40063509461097,12.933012701892217 Z M 71.16483750058559,16.421020118648975 L 70.79053334002101,15.493714130647149 A 55.918638444817205 55.918638444817205 0 0 0 74.67349914763689,13.751722283559577 L 73.34226797745536,11.063261093299039 L 81.16844711994173,11.093593084846095 L 76.44847404121226,17.33633720390696 L 75.11724287103074,14.647876013646425 A 56.918638444817205 56.918638444817205 0 0 1 71.16483750058559,16.421020118648975"/><text text-anchor="middle" pointer-events="none" font-size="8px" fill="#000000" x="48.05974777219404" y="23.029936485457306" transform="rotate(180 48.05974777219404 20.029936485457306)" font-family="sans-serif">DIRECTED</text></g><g class="relationship" transform="translate(-3.5274524660570172 251.41053022253706) rotate(502.2450312678248)"><path class="outline" fill="#A5ABB6" stroke="none" d="M 25 0.5 L 30.399426436056444 0.5 L 30.399426436056444 -0.5 L 25 -0.5 Z M 66.17286393605644 0.5 L 71.57229037211289 0.5 L 71.57229037211289 3.5 L 78.57229037211289 0 L 71.57229037211289 -3.5 L 71.57229037211289 -0.5 L 66.17286393605644 -0.5 Z"/><text text-anchor="middle" pointer-events="none" font-size="8px" fill="#000000" x="48.286145186056444" y="3" transform="rotate(180 48.286145186056444 0)" font-family="sans-serif">WROTE</text></g><g class="relationship" transform="translate(-3.5274524660570172 251.41053022253706) rotate(502.2450312678248)"><path class="outline" fill="#A5ABB6" stroke="none" d="M 21.40063509461097,-12.933012701892217 L 21.90063509461097,-12.06698729810778 A 55.918638444817205 55.918638444817205 0 0 1 23.502972796794566,-12.957402621652598 L 23.031627602182304,-13.839351433951776 A 56.918638444817205 56.918638444817205 0 0 0 21.40063509461097,-12.933012701892217 Z M 73.43176197775296,-15.448338764422928 L 73.01763036278845,-14.538121754316613 A 55.918638444817205 55.918638444817205 0 0 1 74.67349914763689,-13.751722283559577 L 73.34226797745536,-11.063261093299039 L 81.16844711994173,-11.093593084846095 L 76.44847404121226,-17.33633720390696 L 75.11724287103074,-14.647876013646425 A 56.918638444817205 56.918638444817205 0 0 0 73.43176197775296,-15.448338764422928"/><text text-anchor="middle" pointer-events="none" font-size="8px" fill="#000000" x="48.05974777219403" y="-17.029936485457306" transform="rotate(180 48.05974777219403 -20.029936485457306)" font-family="sans-serif">PRODUCED</text></g></g><g class="layer nodes"><g class="node" transform="translate(177.55138161841842,375.3667949623927)"><circle class="outline" cx="0" cy="0" r="25" fill="#F16667" stroke="#eb2728" stroke-width="2px"/><text text-anchor="middle" pointer-events="none" font-family="sans-serif" dy="1.5625" font-size="25" fill="#FFFFFF"/><text text-anchor="middle" pointer-events="none" font-family="sans-serif" dy="1.5625" font-size="25" fill="#FFFFFF"/><text text-anchor="middle" pointer-events="none" x="0" y="0" font-size="10px" fill="#FFFFFF" font-family="sans-serif"> Cameron</text><text text-anchor="middle" pointer-events="none" x="0" y="10" font-size="10px" fill="#FFFFFF" font-family="sans-serif"> Crowe</text></g><g class="node" transform="translate(156.08672435715357,274.407012081051)"><circle class="outline" cx="0" cy="0" r="25" fill="#D9C8AE" stroke="#c0a378" stroke-width="2px"/><text text-anchor="middle" pointer-events="none" font-family="sans-serif" dy="1.5625" font-size="25" fill="#2A2C34"/><text text-anchor="middle" pointer-events="none" font-family="sans-serif" dy="1.5625" font-size="25" fill="#2A2C34"/><text text-anchor="middle" pointer-events="none" x="0" y="0" font-size="10px" fill="#2A2C34" font-family="sans-serif"> Jerry</text><text text-anchor="middle" pointer-events="none" x="0" y="10" font-size="10px" fill="#2A2C34" font-family="sans-serif"> Maguire</text></g><g class="node" transform="translate(356.4790000439814,194.3523649923189)"><circle class="outline" cx="0" cy="0" r="25" fill="#F16667" stroke="#eb2728" stroke-width="2px"/><text text-anchor="middle" pointer-events="none" font-family="sans-serif" dy="1.5625" font-size="25" fill="#FFFFFF"/><text text-anchor="middle" pointer-events="none" font-family="sans-serif" dy="1.5625" font-size="25" fill="#FFFFFF"/><text text-anchor="middle" pointer-events="none" x="0" y="0" font-size="10px" fill="#FFFFFF" font-family="sans-serif"> Lana</text><text text-anchor="middle" pointer-events="none" x="0" y="10" font-size="10px" fill="#FFFFFF" font-family="sans-serif"> Wacho…</text></g><g class="node" transform="translate(365.6291244555549,87.1920213241346)"><circle class="outline" cx="0" cy="0" r="25" fill="#D9C8AE" stroke="#c0a378" stroke-width="2px"/><text text-anchor="middle" pointer-events="none" font-family="sans-serif" dy="1.5625" font-size="25" fill="#2A2C34"/><text text-anchor="middle" pointer-events="none" font-family="sans-serif" dy="1.5625" font-size="25" fill="#2A2C34"/><text text-anchor="middle" pointer-events="none" x="0" y="0" font-size="10px" fill="#2A2C34" font-family="sans-serif"> Speed</text><text text-anchor="middle" pointer-events="none" x="0" y="10" font-size="10px" fill="#2A2C34" font-family="sans-serif"> Racer</text></g><g class="node" transform="translate(258.9254145200814,91.89890059444507)"><circle class="outline" cx="0" cy="0" r="25" fill="#F16667" stroke="#eb2728" stroke-width="2px"/><text text-anchor="middle" pointer-events="none" font-family="sans-serif" dy="1.5625" font-size="25" fill="#FFFFFF"/><text text-anchor="middle" pointer-events="none" font-family="sans-serif" dy="1.5625" font-size="25" fill="#FFFFFF"/><text text-anchor="middle" pointer-events="none" x="0" y="0" font-size="10px" fill="#FFFFFF" font-family="sans-serif"> Lilly</text><text text-anchor="middle" pointer-events="none" x="0" y="10" font-size="10px" fill="#FFFFFF" font-family="sans-serif"> Wacho…</text></g><g class="node" transform="translate(280.28207465714775,-127.5432645669453)"><circle class="outline" cx="0" cy="0" r="25" fill="#F16667" stroke="#eb2728" stroke-width="2px"/><text text-anchor="middle" pointer-events="none" font-family="sans-serif" dy="1.5625" font-size="25" fill="#FFFFFF"/><text text-anchor="middle" pointer-events="none" font-family="sans-serif" dy="1.5625" font-size="25" fill="#FFFFFF"/><text text-anchor="middle" pointer-events="none" x="0" y="0" font-size="10px" fill="#FFFFFF" font-family="sans-serif"> Nancy</text><text text-anchor="middle" pointer-events="none" x="0" y="10" font-size="10px" fill="#FFFFFF" font-family="sans-serif"> Meyers</text></g><g class="node" transform="translate(193.8319546113424,-68.60178105429812)"><circle class="outline" cx="0" cy="0" r="25" fill="#D9C8AE" stroke="#c0a378" stroke-width="2px"/><text text-anchor="middle" pointer-events="none" font-family="sans-serif" dy="1.5625" font-size="25" fill="#2A2C34"/><text text-anchor="middle" pointer-events="none" x="0" y="5" font-size="10px" fill="#2A2C34" font-family="sans-serif"> Somethi…</text></g><g class="node" transform="translate(65.94835872958137,-130.59706962869285)"><circle class="outline" cx="0" cy="0" r="25" fill="#F16667" stroke="#eb2728" stroke-width="2px"/><text text-anchor="middle" pointer-events="none" font-family="sans-serif" dy="1.5625" font-size="25" fill="#FFFFFF"/><text text-anchor="middle" pointer-events="none" font-family="sans-serif" dy="1.5625" font-size="25" fill="#FFFFFF"/><text text-anchor="middle" pointer-events="none" x="0" y="0" font-size="10px" fill="#FFFFFF" font-family="sans-serif"> Cameron</text><text text-anchor="middle" pointer-events="none" x="0" y="10" font-size="10px" fill="#FFFFFF" font-family="sans-serif"> Crowe</text></g><g class="node" transform="translate(-34.25079586609597,-152.4159485030157)"><circle class="outline" cx="0" cy="0" r="25" fill="#D9C8AE" stroke="#c0a378" stroke-width="2px"/><text text-anchor="middle" pointer-events="none" font-family="sans-serif" dy="1.5625" font-size="25" fill="#2A2C34"/><text text-anchor="middle" pointer-events="none" font-family="sans-serif" dy="1.5625" font-size="25" fill="#2A2C34"/><text text-anchor="middle" pointer-events="none" x="0" y="0" font-size="10px" fill="#2A2C34" font-family="sans-serif"> Jerry</text><text text-anchor="middle" pointer-events="none" x="0" y="10" font-size="10px" fill="#2A2C34" font-family="sans-serif"> Maguire</text></g><g class="node" transform="translate(-36.9951804989757,54.02044544491228)"><circle class="outline" cx="0" cy="0" r="25" fill="#F16667" stroke="#eb2728" stroke-width="2px"/><text text-anchor="middle" pointer-events="none" font-family="sans-serif" dy="1.5625" font-size="25" fill="#FFFFFF"/><text text-anchor="middle" pointer-events="none" font-family="sans-serif" dy="1.5625" font-size="25" fill="#FFFFFF"/><text text-anchor="middle" pointer-events="none" x="0" y="0" font-size="10px" fill="#FFFFFF" font-family="sans-serif"> Lana</text><text text-anchor="middle" pointer-events="none" x="0" y="10" font-size="10px" fill="#FFFFFF" font-family="sans-serif"> Wacho…</text></g><g class="node" transform="translate(-136.04411537117298,9.529670915262601)"><circle class="outline" cx="0" cy="0" r="25" fill="#D9C8AE" stroke="#c0a378" stroke-width="2px"/><text text-anchor="middle" pointer-events="none" font-family="sans-serif" dy="1.5625" font-size="25" fill="#2A2C34"/><text text-anchor="middle" pointer-events="none" font-family="sans-serif" dy="1.5625" font-size="25" fill="#2A2C34"/><text text-anchor="middle" pointer-events="none" x="0" y="0" font-size="10px" fill="#2A2C34" font-family="sans-serif"> Speed</text><text text-anchor="middle" pointer-events="none" x="0" y="10" font-size="10px" fill="#2A2C34" font-family="sans-serif"> Racer</text></g><g class="node" transform="translate(-175.2747269452429,108.54149184314747)"><circle class="outline" cx="0" cy="0" r="25" fill="#F16667" stroke="#eb2728" stroke-width="2px"/><text text-anchor="middle" pointer-events="none" font-family="sans-serif" dy="1.5625" font-size="25" fill="#FFFFFF"/><text text-anchor="middle" pointer-events="none" font-family="sans-serif" dy="1.5625" font-size="25" fill="#FFFFFF"/><text text-anchor="middle" pointer-events="none" x="0" y="0" font-size="10px" fill="#FFFFFF" font-family="sans-serif"> Lilly</text><text text-anchor="middle" pointer-events="none" x="0" y="10" font-size="10px" fill="#FFFFFF" font-family="sans-serif"> Wacho…</text></g><g class="node" transform="translate(-3.5274524660570172,251.41053022253706)"><circle class="outline" cx="0" cy="0" r="25" fill="#F16667" stroke="#eb2728" stroke-width="2px"/><text text-anchor="middle" pointer-events="none" font-family="sans-serif" dy="1.5625" font-size="25" fill="#FFFFFF"/><text text-anchor="middle" pointer-events="none" font-family="sans-serif" dy="1.5625" font-size="25" fill="#FFFFFF"/><text text-anchor="middle" pointer-events="none" x="0" y="0" font-size="10px" fill="#FFFFFF" font-family="sans-serif"> Nancy</text><text text-anchor="middle" pointer-events="none" x="0" y="10" font-size="10px" fill="#FFFFFF" font-family="sans-serif"> Meyers</text></g><g class="node" transform="translate(-85.4154834310039,314.8263777498639)"><circle class="outline" cx="0" cy="0" r="25" fill="#D9C8AE" stroke="#c0a378" stroke-width="2px"/><text text-anchor="middle" pointer-events="none" font-family="sans-serif" dy="1.5625" font-size="25" fill="#2A2C34"/><text text-anchor="middle" pointer-events="none" x="0" y="5" font-size="10px" fill="#2A2C34" font-family="sans-serif"> Somethi…</text></g></g></svg>