<svg xmlns="http://www.w3.org/2000/svg" width="352.15478515625" height="544.733642578125" viewBox="-77.39598083496094 -176.52064514160156 352.15478515625 544.733642578125"><title>Neo4j Graph Visualization</title><desc>Created using Neo4j (http://www.neo4j.com/)</desc><g class="layer relationships"><g class="relationship" transform="translate(62.64867623785608 263.00822962658617) rotate(500.3121311927773)"><path class="outline" fill="#A5ABB6" stroke="none" d="M 25 0.5 L 28.79592268076923 0.5 L 28.79592268076923 -0.5 L 25 -0.5 Z M 74.35842268076922 0.5 L 78.15434536153846 0.5 L 78.15434536153846 3.5 L 85.15434536153846 0 L 78.15434536153846 -3.5 L 78.15434536153846 -0.5 L 74.35842268076922 -0.5 Z"/><text text-anchor="middle" pointer-events="none" font-size="8px" fill="#000000" x="51.57717268076923" y="3" transform="rotate(180 51.57717268076923 0)" font-family="sans-serif">ACTED_IN</text></g><g class="relationship" transform="translate(62.64867623785608 263.00822962658617) rotate(403.4351491516139)"><path class="outline" fill="#A5ABB6" stroke="none" d="M 25 0.5 L 29.13774685292767 0.5 L 29.13774685292767 -0.5 L 25 -0.5 Z M 74.70024685292768 0.5 L 78.83799370585534 0.5 L 78.83799370585534 3.5 L 85.83799370585534 0 L 78.83799370585534 -3.5 L 78.83799370585534 -0.5 L 74.70024685292768 -0.5 Z"/><text text-anchor="middle" pointer-events="none" font-size="8px" fill="#000000" x="51.91899685292767" y="3" font-family="sans-serif">ACTED_IN</text></g><g class="relationship" transform="translate(62.64867623785608 263.00822962658617) rotate(345.1692421912044)"><path class="outline" fill="#A5ABB6" stroke="none" d="M 25 0.5 L 30.429113577869543 0.5 L 30.429113577869543 -0.5 L 25 -0.5 Z M 75.99161357786954 0.5 L 81.42072715573909 0.5 L 81.42072715573909 3.5 L 88.42072715573909 0 L 81.42072715573909 -3.5 L 81.42072715573909 -0.5 L 75.99161357786954 -0.5 Z"/><text text-anchor="middle" pointer-events="none" font-size="8px" fill="#000000" x="53.21036357786954" y="3" font-family="sans-serif">ACTED_IN</text></g><g class="relationship" transform="translate(62.64867623785608 263.00822962658617) rotate(253.23751899239386)"><path class="outline" fill="#A5ABB6" stroke="none" d="M 25 0.5 L 29.295955448732293 0.5 L 29.295955448732293 -0.5 L 25 -0.5 Z M 74.85845544873229 0.5 L 79.15441089746459 0.5 L 79.15441089746459 3.5 L 86.15441089746459 0 L 79.15441089746459 -3.5 L 79.15441089746459 -0.5 L 74.85845544873229 -0.5 Z"/><text text-anchor="middle" pointer-events="none" font-size="8px" fill="#000000" x="52.07720544873229" y="3" transform="rotate(180 52.07720544873229 0)" font-family="sans-serif">ACTED_IN</text></g><g class="relationship" transform="translate(62.64867623785608 263.00822962658617) rotate(200.37004203607944)"><path class="outline" fill="#A5ABB6" stroke="none" d="M 25 0.5 L 32.94483591988925 0.5 L 32.94483591988925 -0.5 L 25 -0.5 Z M 78.50733591988924 0.5 L 86.4521718397785 0.5 L 86.4521718397785 3.5 L 93.4521718397785 0 L 86.4521718397785 -3.5 L 86.4521718397785 -0.5 L 78.50733591988924 -0.5 Z"/><text text-anchor="middle" pointer-events="none" font-size="8px" fill="#000000" x="55.72608591988925" y="3" transform="rotate(180 55.72608591988925 0)" font-family="sans-serif">ACTED_IN</text></g><g class="relationship" transform="translate(135.77795514617048 -63.59449562720043) rotate(324.90139831279055)"><path class="outline" fill="#A5ABB6" stroke="none" d="M 25 0.5 L 29.13558126368516 0.5 L 29.13558126368516 -0.5 L 25 -0.5 Z M 74.69808126368517 0.5 L 78.83366252737032 0.5 L 78.83366252737032 3.5 L 85.83366252737032 0 L 78.83366252737032 -3.5 L 78.83366252737032 -0.5 L 74.69808126368517 -0.5 Z"/><text text-anchor="middle" pointer-events="none" font-size="8px" fill="#000000" x="51.91683126368516" y="3" font-family="sans-serif">ACTED_IN</text></g><g class="relationship" transform="translate(135.77795514617048 -63.59449562720043) rotate(229.37484531563268)"><path class="outline" fill="#A5ABB6" stroke="none" d="M 25 0.5 L 29.007118319084626 0.5 L 29.007118319084626 -0.5 L 25 -0.5 Z M 74.56961831908463 0.5 L 78.57673663816925 0.5 L 78.57673663816925 3.5 L 85.57673663816925 0 L 78.57673663816925 -3.5 L 78.57673663816925 -0.5 L 74.56961831908463 -0.5 Z"/><text text-anchor="middle" pointer-events="none" font-size="8px" fill="#000000" x="51.788368319084626" y="3" transform="rotate(180 51.788368319084626 0)" font-family="sans-serif">ACTED_IN</text></g><g class="relationship" transform="translate(135.77795514617048 -63.59449562720043) rotate(528.8550407625082)"><path class="outline" fill="#A5ABB6" stroke="none" d="M 25 0.5 L 31.214922796927084 0.5 L 31.214922796927084 -0.5 L 25 -0.5 Z M 76.77742279692708 0.5 L 82.99234559385417 0.5 L 82.99234559385417 3.5 L 89.99234559385417 0 L 82.99234559385417 -3.5 L 82.99234559385417 -0.5 L 76.77742279692708 -0.5 Z"/><text text-anchor="middle" pointer-events="none" font-size="8px" fill="#000000" x="53.996172796927084" y="3" transform="rotate(180 53.996172796927084 0)" font-family="sans-serif">ACTED_IN</text></g><g class="relationship" transform="translate(135.77795514617048 -63.59449562720043) rotate(435.409925793333)"><path class="outline" fill="#A5ABB6" stroke="none" d="M 25 0.5 L 29.084674643064268 0.5 L 29.084674643064268 -0.5 L 25 -0.5 Z M 74.64717464306426 0.5 L 78.73184928612854 0.5 L 78.73184928612854 3.5 L 85.73184928612854 0 L 78.73184928612854 -3.5 L 78.73184928612854 -0.5 L 74.64717464306426 -0.5 Z"/><text text-anchor="middle" pointer-events="none" font-size="8px" fill="#000000" x="51.86592464306427" y="3" font-family="sans-serif">ACTED_IN</text></g><g class="relationship" transform="translate(135.77795514617048 -63.59449562720043) rotate(382.6269408407684)"><path class="outline" fill="#A5ABB6" stroke="none" d="M 25 0.5 L 33.29477599241845 0.5 L 33.29477599241845 -0.5 L 25 -0.5 Z M 78.85727599241845 0.5 L 87.1520519848369 0.5 L 87.1520519848369 3.5 L 94.1520519848369 0 L 87.1520519848369 -3.5 L 87.1520519848369 -0.5 L 78.85727599241845 -0.5 Z"/><text text-anchor="middle" pointer-events="none" font-size="8px" fill="#000000" x="56.07602599241845" y="3" font-family="sans-serif">ACTED_IN</text></g></g><g class="layer nodes"><g class="node" transform="translate(62.64867623785608,263.00822962658617)"><circle class="outline" cx="0" cy="0" r="25" fill="#F16667" stroke="#eb2728" stroke-width="2px"/><text text-anchor="middle" pointer-events="none" font-family="sans-serif" dy="1.5625" font-size="25" fill="#FFFFFF"/><text text-anchor="middle" pointer-events="none" font-family="sans-serif" dy="1.5625" font-size="25" fill="#FFFFFF"/><text text-anchor="middle" pointer-events="none" x="0" y="0" font-size="10px" fill="#FFFFFF" font-family="sans-serif"> Hugo</text><text text-anchor="middle" pointer-events="none" x="0" y="10" font-size="10px" fill="#FFFFFF" font-family="sans-serif"> Weaving</text></g><g class="node" transform="translate(-22.11892408638296,333.35333419896676)"><circle class="outline" cx="0" cy="0" r="25" fill="#D9C8AE" stroke="#c0a378" stroke-width="2px"/><text text-anchor="middle" pointer-events="none" font-family="sans-serif" dy="1.5625" font-size="25" fill="#2A2C34"/><text text-anchor="middle" pointer-events="none" font-family="sans-serif" dy="1.5625" font-size="25" fill="#2A2C34"/><text text-anchor="middle" pointer-events="none" x="0" y="0" font-size="10px" fill="#2A2C34" font-family="sans-serif"> Cloud</text><text text-anchor="middle" pointer-events="none" x="0" y="10" font-size="10px" fill="#2A2C34" font-family="sans-serif"> Atlas</text></g><g class="node" transform="translate(143.13402096081538,339.2130203786487)"><circle class="outline" cx="0" cy="0" r="25" fill="#D9C8AE" stroke="#c0a378" stroke-width="2px"/><text text-anchor="middle" pointer-events="none" font-family="sans-serif" dy="1.5625" font-size="25" fill="#2A2C34"/><text text-anchor="middle" pointer-events="none" font-family="sans-serif" dy="1.5625" font-size="25" fill="#2A2C34"/><text text-anchor="middle" pointer-events="none" x="0" y="0" font-size="10px" fill="#2A2C34" font-family="sans-serif"> V for</text><text text-anchor="middle" pointer-events="none" x="0" y="10" font-size="10px" fill="#2A2C34" font-family="sans-serif"> Vendetta</text></g><g class="node" transform="translate(172.2909188568782,233.9765231316503)"><circle class="outline" cx="0" cy="0" r="25" fill="#D9C8AE" stroke="#c0a378" stroke-width="2px"/><text text-anchor="middle" pointer-events="none" font-family="sans-serif" dy="1.5625" font-size="25" fill="#2A2C34"/><text text-anchor="middle" pointer-events="none" font-family="sans-serif" dy="1.5625" font-size="25" fill="#2A2C34"/><text text-anchor="middle" pointer-events="none" font-family="sans-serif" dy="1.5625" font-size="25" fill="#2A2C34"/><text text-anchor="middle" pointer-events="none" x="0" y="-5" font-size="10px" fill="#2A2C34" font-family="sans-serif"> The</text><text text-anchor="middle" pointer-events="none" x="0" y="5" font-size="10px" fill="#2A2C34" font-family="sans-serif"> Matrix</text><text text-anchor="middle" pointer-events="none" x="0" y="15" font-size="10px" fill="#2A2C34" font-family="sans-serif"> Revol…</text></g><g class="node" transform="translate(30.59120464237054,156.57692982776274)"><circle class="outline" cx="0" cy="0" r="25" fill="#D9C8AE" stroke="#c0a378" stroke-width="2px"/><text text-anchor="middle" pointer-events="none" font-family="sans-serif" dy="1.5625" font-size="25" fill="#2A2C34"/><text text-anchor="middle" pointer-events="none" font-family="sans-serif" dy="1.5625" font-size="25" fill="#2A2C34"/><text text-anchor="middle" pointer-events="none" font-family="sans-serif" dy="1.5625" font-size="25" fill="#2A2C34"/><text text-anchor="middle" pointer-events="none" x="0" y="-5" font-size="10px" fill="#2A2C34" font-family="sans-serif"> The</text><text text-anchor="middle" pointer-events="none" x="0" y="5" font-size="10px" fill="#2A2C34" font-family="sans-serif"> Matrix</text><text text-anchor="middle" pointer-events="none" x="0" y="15" font-size="10px" fill="#2A2C34" font-family="sans-serif"> Reloa…</text></g><g class="node" transform="translate(-48.39598450470352,221.77716931848522)"><circle class="outline" cx="0" cy="0" r="25" fill="#D9C8AE" stroke="#c0a378" stroke-width="2px"/><text text-anchor="middle" pointer-events="none" font-family="sans-serif" dy="1.5625" font-size="25" fill="#2A2C34"/><text text-anchor="middle" pointer-events="none" font-family="sans-serif" dy="1.5625" font-size="25" fill="#2A2C34"/><text text-anchor="middle" pointer-events="none" x="0" y="0" font-size="10px" fill="#2A2C34" font-family="sans-serif"> The</text><text text-anchor="middle" pointer-events="none" x="0" y="10" font-size="10px" fill="#2A2C34" font-family="sans-serif"> Matrix</text></g><g class="node" transform="translate(135.77795514617048,-63.59449562720043)"><circle class="outline" cx="0" cy="0" r="25" fill="#F16667" stroke="#eb2728" stroke-width="2px"/><text text-anchor="middle" pointer-events="none" font-family="sans-serif" dy="1.5625" font-size="25" fill="#FFFFFF"/><text text-anchor="middle" pointer-events="none" font-family="sans-serif" dy="1.5625" font-size="25" fill="#FFFFFF"/><text text-anchor="middle" pointer-events="none" x="0" y="0" font-size="10px" fill="#FFFFFF" font-family="sans-serif"> Hugo</text><text text-anchor="middle" pointer-events="none" x="0" y="10" font-size="10px" fill="#FFFFFF" font-family="sans-serif"> Weaving</text></g><g class="node" transform="translate(226.45804013658736,-127.32222064042983)"><circle class="outline" cx="0" cy="0" r="25" fill="#D9C8AE" stroke="#c0a378" stroke-width="2px"/><text text-anchor="middle" pointer-events="none" font-family="sans-serif" dy="1.5625" font-size="25" fill="#2A2C34"/><text text-anchor="middle" pointer-events="none" font-family="sans-serif" dy="1.5625" font-size="25" fill="#2A2C34"/><text text-anchor="middle" pointer-events="none" font-family="sans-serif" dy="1.5625" font-size="25" fill="#2A2C34"/><text text-anchor="middle" pointer-events="none" x="0" y="-5" font-size="10px" fill="#2A2C34" font-family="sans-serif"> The</text><text text-anchor="middle" pointer-events="none" x="0" y="5" font-size="10px" fill="#2A2C34" font-family="sans-serif"> Matrix</text><text text-anchor="middle" pointer-events="none" x="0" y="15" font-size="10px" fill="#2A2C34" font-family="sans-serif"> Revol…</text></g><g class="node" transform="translate(63.780612707588254,-147.5206379627598)"><circle class="outline" cx="0" cy="0" r="25" fill="#D9C8AE" stroke="#c0a378" stroke-width="2px"/><text text-anchor="middle" pointer-events="none" font-family="sans-serif" dy="1.5625" font-size="25" fill="#2A2C34"/><text text-anchor="middle" pointer-events="none" font-family="sans-serif" dy="1.5625" font-size="25" fill="#2A2C34"/><text text-anchor="middle" pointer-events="none" x="0" y="0" font-size="10px" fill="#2A2C34" font-family="sans-serif"> The</text><text text-anchor="middle" pointer-events="none" x="0" y="10" font-size="10px" fill="#2A2C34" font-family="sans-serif"> Matrix</text></g><g class="node" transform="translate(22.95421656612822,-41.367404994401056)"><circle class="outline" cx="0" cy="0" r="25" fill="#D9C8AE" stroke="#c0a378" stroke-width="2px"/><text text-anchor="middle" pointer-events="none" font-family="sans-serif" dy="1.5625" font-size="25" fill="#2A2C34"/><text text-anchor="middle" pointer-events="none" font-family="sans-serif" dy="1.5625" font-size="25" fill="#2A2C34"/><text text-anchor="middle" pointer-events="none" font-family="sans-serif" dy="1.5625" font-size="25" fill="#2A2C34"/><text text-anchor="middle" pointer-events="none" x="0" y="-5" font-size="10px" fill="#2A2C34" font-family="sans-serif"> The</text><text text-anchor="middle" pointer-events="none" x="0" y="5" font-size="10px" fill="#2A2C34" font-family="sans-serif"> Matrix</text><text text-anchor="middle" pointer-events="none" x="0" y="15" font-size="10px" fill="#2A2C34" font-family="sans-serif"> Reloa…</text></g><g class="node" transform="translate(163.67149740792837,43.56656421459756)"><circle class="outline" cx="0" cy="0" r="25" fill="#D9C8AE" stroke="#c0a378" stroke-width="2px"/><text text-anchor="middle" pointer-events="none" font-family="sans-serif" dy="1.5625" font-size="25" fill="#2A2C34"/><text text-anchor="middle" pointer-events="none" font-family="sans-serif" dy="1.5625" font-size="25" fill="#2A2C34"/><text text-anchor="middle" pointer-events="none" x="0" y="0" font-size="10px" fill="#2A2C34" font-family="sans-serif"> V for</text><text text-anchor="middle" pointer-events="none" x="0" y="10" font-size="10px" fill="#2A2C34" font-family="sans-serif"> Vendetta</text></g><g class="node" transform="translate(245.7588042182542,-17.753200602072493)"><circle class="outline" cx="0" cy="0" r="25" fill="#D9C8AE" stroke="#c0a378" stroke-width="2px"/><text text-anchor="middle" pointer-events="none" font-family="sans-serif" dy="1.5625" font-size="25" fill="#2A2C34"/><text text-anchor="middle" pointer-events="none" font-family="sans-serif" dy="1.5625" font-size="25" fill="#2A2C34"/><text text-anchor="middle" pointer-events="none" x="0" y="0" font-size="10px" fill="#2A2C34" font-family="sans-serif"> Cloud</text><text text-anchor="middle" pointer-events="none" x="0" y="10" font-size="10px" fill="#2A2C34" font-family="sans-serif"> Atlas</text></g></g></svg>