<svg xmlns="http://www.w3.org/2000/svg" width="354.9896545410156" height="456.04144287109375" viewBox="-51.732421875 -131.97946166992188 354.9896545410156 456.04144287109375"><title>Neo4j Graph Visualization</title><desc>Created using Neo4j (http://www.neo4j.com/)</desc><g class="layer relationships"><g class="relationship" transform="translate(227.51927965599998 250.71954152375005) rotate(512.712577121107)"><path class="outline" fill="#A5ABB6" stroke="none" d="M 25 0.5 L 27.192811837946486 0.5 L 27.192811837946486 -0.5 L 25 -0.5 Z M 62.528749337946486 0.5 L 64.72156117589297 0.5 L 64.72156117589297 3.5 L 71.72156117589297 0 L 64.72156117589297 -3.5 L 64.72156117589297 -0.5 L 62.528749337946486 -0.5 Z"/><text text-anchor="middle" pointer-events="none" font-size="8px" fill="#000000" x="44.860780587946486" y="3" transform="rotate(180 44.860780587946486 0)" font-family="sans-serif">ACTE…</text></g><g class="relationship" transform="translate(227.51927965599998 250.71954152375005) rotate(294.9373123236445)"><path class="outline" fill="#A5ABB6" stroke="none" d="M 25 0.5 L 29.144535679361447 0.5 L 29.144535679361447 -0.5 L 25 -0.5 Z M 74.70703567936144 0.5 L 78.8515713587229 0.5 L 78.8515713587229 3.5 L 85.8515713587229 0 L 78.8515713587229 -3.5 L 78.8515713587229 -0.5 L 74.70703567936144 -0.5 Z"/><text text-anchor="middle" pointer-events="none" font-size="8px" fill="#000000" x="51.92578567936145" y="3" font-family="sans-serif">ACTED_IN</text></g><g class="relationship" transform="translate(227.51927965599998 250.71954152375005) rotate(183.95560895119252)"><path class="outline" fill="#A5ABB6" stroke="none" d="M 25 0.5 L 39.28798428737717 0.5 L 39.28798428737717 -0.5 L 25 -0.5 Z M 84.85048428737717 0.5 L 99.13846857475434 0.5 L 99.13846857475434 3.5 L 106.13846857475434 0 L 99.13846857475434 -3.5 L 99.13846857475434 -0.5 L 84.85048428737717 -0.5 Z"/><text text-anchor="middle" pointer-events="none" font-size="8px" fill="#000000" x="62.06923428737717" y="3" transform="rotate(180 62.06923428737717 0)" font-family="sans-serif">ACTED_IN</text></g><g class="relationship" transform="translate(165.7923942799022 173.13649907069407) rotate(461.24042162018856)"><path class="outline" fill="#A5ABB6" stroke="none" d="M 25 0.5 L 35.87375246574997 0.5 L 35.87375246574997 -0.5 L 25 -0.5 Z M 81.43625246574997 0.5 L 92.31000493149995 0.5 L 92.31000493149995 3.5 L 99.31000493149995 0 L 92.31000493149995 -3.5 L 92.31000493149995 -0.5 L 81.43625246574997 -0.5 Z"/><text text-anchor="middle" pointer-events="none" font-size="8px" fill="#000000" x="58.65500246574997" y="3" transform="rotate(180 58.65500246574997 0)" font-family="sans-serif">ACTED_IN</text></g><g class="relationship" transform="translate(165.7923942799022 173.13649907069407) rotate(348.0612270331068)"><path class="outline" fill="#A5ABB6" stroke="none" d="M 25 0.5 L 29.150193216007523 0.5 L 29.150193216007523 -0.5 L 25 -0.5 Z M 74.71269321600752 0.5 L 78.86288643201505 0.5 L 78.86288643201505 3.5 L 85.86288643201505 0 L 78.86288643201505 -3.5 L 78.86288643201505 -0.5 L 74.71269321600752 -0.5 Z"/><text text-anchor="middle" pointer-events="none" font-size="8px" fill="#000000" x="51.93144321600752" y="3" font-family="sans-serif">ACTED_IN</text></g><g class="relationship" transform="translate(165.7923942799022 173.13649907069407) rotate(495.2341766628721)"><path class="outline" fill="#A5ABB6" stroke="none" d="M 25 0.5 L 27.49405111099866 0.5 L 27.49405111099866 -0.5 L 25 -0.5 Z M 62.82998861099866 0.5 L 65.32403972199732 0.5 L 65.32403972199732 3.5 L 72.32403972199732 0 L 65.32403972199732 -3.5 L 65.32403972199732 -0.5 L 62.82998861099866 -0.5 Z"/><text text-anchor="middle" pointer-events="none" font-size="8px" fill="#000000" x="45.16201986099866" y="3" transform="rotate(180 45.16201986099866 0)" font-family="sans-serif">ACTE…</text></g><g class="relationship" transform="translate(110.34138721382187 -64.35461240938534) rotate(462.61771667949597)"><path class="outline" fill="#A5ABB6" stroke="none" d="M 25 0.5 L 25.670784459007344 0.5 L 25.670784459007344 -0.5 L 25 -0.5 Z M 55.67078445900734 0.5 L 56.34156891801469 0.5 L 56.34156891801469 3.5 L 63.34156891801469 0 L 56.34156891801469 -3.5 L 56.34156891801469 -0.5 L 55.67078445900734 -0.5 Z"/><text text-anchor="middle" pointer-events="none" font-size="8px" fill="#000000" x="40.67078445900734" y="3" transform="rotate(180 40.67078445900734 0)" font-family="sans-serif">ACT…</text></g><g class="relationship" transform="translate(110.34138721382187 -64.35461240938534) rotate(188.70063661825998)"><path class="outline" fill="#A5ABB6" stroke="none" d="M 25 0.5 L 41.0302608798153 0.5 L 41.0302608798153 -0.5 L 25 -0.5 Z M 86.5927608798153 0.5 L 102.6230217596306 0.5 L 102.6230217596306 3.5 L 109.6230217596306 0 L 102.6230217596306 -3.5 L 102.6230217596306 -0.5 L 86.5927608798153 -0.5 Z"/><text text-anchor="middle" pointer-events="none" font-size="8px" fill="#000000" x="63.8115108798153" y="3" transform="rotate(180 63.8115108798153 0)" font-family="sans-serif">ACTED_IN</text></g><g class="relationship" transform="translate(110.34138721382187 -64.35461240938534) rotate(510.23814114480706)"><path class="outline" fill="#A5ABB6" stroke="none" d="M 25 0.5 L 32.86059283935484 0.5 L 32.86059283935484 -0.5 L 25 -0.5 Z M 78.42309283935484 0.5 L 86.28368567870967 0.5 L 86.28368567870967 3.5 L 93.28368567870967 0 L 86.28368567870967 -3.5 L 86.28368567870967 -0.5 L 78.42309283935484 -0.5 Z"/><text text-anchor="middle" pointer-events="none" font-size="8px" fill="#000000" x="55.64184283935484" y="3" transform="rotate(180 55.64184283935484 0)" font-family="sans-serif">ACTED_IN</text></g><g class="relationship" transform="translate(64.47913486547606 -102.97946907134073) rotate(528.1743526308736)"><path class="outline" fill="#A5ABB6" stroke="none" d="M 25 0.5 L 26.05134654119655 0.5 L 26.05134654119655 -0.5 L 25 -0.5 Z M 56.05134654119655 0.5 L 57.1026930823931 0.5 L 57.1026930823931 3.5 L 64.1026930823931 0 L 57.1026930823931 -3.5 L 57.1026930823931 -0.5 L 56.05134654119655 -0.5 Z"/><text text-anchor="middle" pointer-events="none" font-size="8px" fill="#000000" x="41.05134654119655" y="3" transform="rotate(180 41.05134654119655 0)" font-family="sans-serif">ACT…</text></g><g class="relationship" transform="translate(64.47913486547606 -102.97946907134073) rotate(480.2728755892344)"><path class="outline" fill="#A5ABB6" stroke="none" d="M 25 0.5 L 30.073868846186755 0.5 L 30.073868846186755 -0.5 L 25 -0.5 Z M 75.63636884618676 0.5 L 80.71023769237351 0.5 L 80.71023769237351 3.5 L 87.71023769237351 0 L 80.71023769237351 -3.5 L 80.71023769237351 -0.5 L 75.63636884618676 -0.5 Z"/><text text-anchor="middle" pointer-events="none" font-size="8px" fill="#000000" x="52.855118846186755" y="3" transform="rotate(180 52.855118846186755 0)" font-family="sans-serif">ACTED_IN</text></g><g class="relationship" transform="translate(64.47913486547606 -102.97946907134073) rotate(437.9866402852495)"><path class="outline" fill="#A5ABB6" stroke="none" d="M 25 0.5 L 37.53279099754897 0.5 L 37.53279099754897 -0.5 L 25 -0.5 Z M 83.09529099754897 0.5 L 95.62808199509794 0.5 L 95.62808199509794 3.5 L 102.62808199509794 0 L 95.62808199509794 -3.5 L 95.62808199509794 -0.5 L 83.09529099754897 -0.5 Z"/><text text-anchor="middle" pointer-events="none" font-size="8px" fill="#000000" x="60.31404099754897" y="3" font-family="sans-serif">ACTED_IN</text></g></g><g class="layer nodes"><g class="node" transform="translate(227.51927965599998,250.71954152375005)"><circle class="outline" cx="0" cy="0" r="25" fill="#F16667" stroke="#eb2728" stroke-width="2px"/><text text-anchor="middle" pointer-events="none" font-family="sans-serif" dy="1.5625" font-size="25" fill="#FFFFFF"/><text text-anchor="middle" pointer-events="none" font-family="sans-serif" dy="1.5625" font-size="25" fill="#FFFFFF"/><text text-anchor="middle" pointer-events="none" x="0" y="0" font-size="10px" fill="#FFFFFF" font-family="sans-serif"> Hugo</text><text text-anchor="middle" pointer-events="none" x="0" y="10" font-size="10px" fill="#FFFFFF" font-family="sans-serif"> Weaving</text></g><g class="node" transform="translate(165.7923942799022,173.13649907069407)"><circle class="outline" cx="0" cy="0" r="25" fill="#F16667" stroke="#eb2728" stroke-width="2px"/><text text-anchor="middle" pointer-events="none" font-family="sans-serif" dy="1.5625" font-size="25" fill="#FFFFFF"/><text text-anchor="middle" pointer-events="none" font-family="sans-serif" dy="1.5625" font-size="25" fill="#FFFFFF"/><text text-anchor="middle" pointer-events="none" x="0" y="0" font-size="10px" fill="#FFFFFF" font-family="sans-serif"> Keanu</text><text text-anchor="middle" pointer-events="none" x="0" y="10" font-size="10px" fill="#FFFFFF" font-family="sans-serif"> Reeves</text></g><g class="node" transform="translate(141.56109785102856,295.0619746672469)"><circle class="outline" cx="0" cy="0" r="25" fill="#D9C8AE" stroke="#c0a378" stroke-width="2px"/><text text-anchor="middle" pointer-events="none" font-family="sans-serif" dy="1.5625" font-size="25" fill="#2A2C34"/><text text-anchor="middle" pointer-events="none" font-family="sans-serif" dy="1.5625" font-size="25" fill="#2A2C34"/><text text-anchor="middle" pointer-events="none" font-family="sans-serif" dy="1.5625" font-size="25" fill="#2A2C34"/><text text-anchor="middle" pointer-events="none" x="0" y="-5" font-size="10px" fill="#2A2C34" font-family="sans-serif"> The</text><text text-anchor="middle" pointer-events="none" x="0" y="5" font-size="10px" fill="#2A2C34" font-family="sans-serif"> Matrix</text><text text-anchor="middle" pointer-events="none" x="0" y="15" font-size="10px" fill="#2A2C34" font-family="sans-serif"> Revol…</text></g><g class="node" transform="translate(274.2572299391934,150.2027027551946)"><circle class="outline" cx="0" cy="0" r="25" fill="#D9C8AE" stroke="#c0a378" stroke-width="2px"/><text text-anchor="middle" pointer-events="none" font-family="sans-serif" dy="1.5625" font-size="25" fill="#2A2C34"/><text text-anchor="middle" pointer-events="none" font-family="sans-serif" dy="1.5625" font-size="25" fill="#2A2C34"/><text text-anchor="middle" pointer-events="none" font-family="sans-serif" dy="1.5625" font-size="25" fill="#2A2C34"/><text text-anchor="middle" pointer-events="none" x="0" y="-5" font-size="10px" fill="#2A2C34" font-family="sans-serif"> The</text><text text-anchor="middle" pointer-events="none" x="0" y="5" font-size="10px" fill="#2A2C34" font-family="sans-serif"> Matrix</text><text text-anchor="middle" pointer-events="none" x="0" y="15" font-size="10px" fill="#2A2C34" font-family="sans-serif"> Reloa…</text></g><g class="node" transform="translate(96.69320965623851,241.67314176752998)"><circle class="outline" cx="0" cy="0" r="25" fill="#D9C8AE" stroke="#c0a378" stroke-width="2px"/><text text-anchor="middle" pointer-events="none" font-family="sans-serif" dy="1.5625" font-size="25" fill="#2A2C34"/><text text-anchor="middle" pointer-events="none" font-family="sans-serif" dy="1.5625" font-size="25" fill="#2A2C34"/><text text-anchor="middle" pointer-events="none" x="0" y="0" font-size="10px" fill="#2A2C34" font-family="sans-serif"> The</text><text text-anchor="middle" pointer-events="none" x="0" y="10" font-size="10px" fill="#2A2C34" font-family="sans-serif"> Matrix</text></g><g class="node" transform="translate(110.34138721382187,-64.35461240938534)"><circle class="outline" cx="0" cy="0" r="25" fill="#F16667" stroke="#eb2728" stroke-width="2px"/><text text-anchor="middle" pointer-events="none" font-family="sans-serif" dy="1.5625" font-size="25" fill="#FFFFFF"/><text text-anchor="middle" pointer-events="none" font-family="sans-serif" dy="1.5625" font-size="25" fill="#FFFFFF"/><text text-anchor="middle" pointer-events="none" x="0" y="0" font-size="10px" fill="#FFFFFF" font-family="sans-serif"> Hugo</text><text text-anchor="middle" pointer-events="none" x="0" y="10" font-size="10px" fill="#FFFFFF" font-family="sans-serif"> Weaving</text></g><g class="node" transform="translate(64.47913486547606,-102.97946907134073)"><circle class="outline" cx="0" cy="0" r="25" fill="#F16667" stroke="#eb2728" stroke-width="2px"/><text text-anchor="middle" pointer-events="none" font-family="sans-serif" dy="1.5625" font-size="25" fill="#FFFFFF"/><text text-anchor="middle" pointer-events="none" font-family="sans-serif" dy="1.5625" font-size="25" fill="#FFFFFF"/><text text-anchor="middle" pointer-events="none" x="0" y="0" font-size="10px" fill="#FFFFFF" font-family="sans-serif"> Keanu</text><text text-anchor="middle" pointer-events="none" x="0" y="10" font-size="10px" fill="#FFFFFF" font-family="sans-serif"> Reeves</text></g><g class="node" transform="translate(-22.732420553956295,-84.71927970051485)"><circle class="outline" cx="0" cy="0" r="25" fill="#D9C8AE" stroke="#c0a378" stroke-width="2px"/><text text-anchor="middle" pointer-events="none" font-family="sans-serif" dy="1.5625" font-size="25" fill="#2A2C34"/><text text-anchor="middle" pointer-events="none" font-family="sans-serif" dy="1.5625" font-size="25" fill="#2A2C34"/><text text-anchor="middle" pointer-events="none" x="0" y="0" font-size="10px" fill="#2A2C34" font-family="sans-serif"> The</text><text text-anchor="middle" pointer-events="none" x="0" y="10" font-size="10px" fill="#2A2C34" font-family="sans-serif"> Matrix</text></g><g class="node" transform="translate(7.65978205270008,-5.6390415676122565)"><circle class="outline" cx="0" cy="0" r="25" fill="#D9C8AE" stroke="#c0a378" stroke-width="2px"/><text text-anchor="middle" pointer-events="none" font-family="sans-serif" dy="1.5625" font-size="25" fill="#2A2C34"/><text text-anchor="middle" pointer-events="none" font-family="sans-serif" dy="1.5625" font-size="25" fill="#2A2C34"/><text text-anchor="middle" pointer-events="none" font-family="sans-serif" dy="1.5625" font-size="25" fill="#2A2C34"/><text text-anchor="middle" pointer-events="none" x="0" y="-5" font-size="10px" fill="#2A2C34" font-family="sans-serif"> The</text><text text-anchor="middle" pointer-events="none" x="0" y="5" font-size="10px" fill="#2A2C34" font-family="sans-serif"> Matrix</text><text text-anchor="middle" pointer-events="none" x="0" y="15" font-size="10px" fill="#2A2C34" font-family="sans-serif"> Reloa…</text></g><g class="node" transform="translate(91.04361332677924,21.853442445720358)"><circle class="outline" cx="0" cy="0" r="25" fill="#D9C8AE" stroke="#c0a378" stroke-width="2px"/><text text-anchor="middle" pointer-events="none" font-family="sans-serif" dy="1.5625" font-size="25" fill="#2A2C34"/><text text-anchor="middle" pointer-events="none" font-family="sans-serif" dy="1.5625" font-size="25" fill="#2A2C34"/><text text-anchor="middle" pointer-events="none" font-family="sans-serif" dy="1.5625" font-size="25" fill="#2A2C34"/><text text-anchor="middle" pointer-events="none" x="0" y="-5" font-size="10px" fill="#2A2C34" font-family="sans-serif"> The</text><text text-anchor="middle" pointer-events="none" x="0" y="5" font-size="10px" fill="#2A2C34" font-family="sans-serif"> Matrix</text><text text-anchor="middle" pointer-events="none" x="0" y="15" font-size="10px" fill="#2A2C34" font-family="sans-serif"> Revol…</text></g></g></svg>